<svg class="diagram-svg" xmlns="http://www.w3.org/2000/svg" version="1.1" viewBox="0 0 741 1451" width="741" height="1451"><defs/><g><g class="title" data-source-line="3"><text x="288.76" y="27" font-size="14" fill="#000000" xml:space="preserve" style="white-space: pre" font-weight="bold" font-family="sans-serif">系统上下文图 C4 Context</text><text x="236.66" y="47" font-size="14" fill="#000000" xml:space="preserve" style="white-space: pre" font-weight="bold" font-family="sans-serif">目的：对齐谁用系统、系统边界、外部依赖</text></g><g class="cluster" data-qualified-name="..Agent...." id="ent0004" data-source-line="9"><rect x="313.10" y="390.50" width="244" height="560" rx="2.50" ry="2.50" fill="#00000000" stroke="#181818" stroke-width="1"/><text x="373.27" y="409.50" font-size="14" fill="#000000" xml:space="preserve" style="white-space: pre" font-weight="bold" font-family="sans-serif">客服Agent系统边界</text></g><g class="entity" data-qualified-name="..Agent.....Shell" id="ent0005" data-source-line="10"><rect x="329.12" y="429.50" width="195.96" height="110" rx="2.50" ry="2.50" fill="#F1F1F1" stroke="#181818" stroke-width="0.50"/><rect x="505.07" y="434.50" width="15" height="10" fill="#F1F1F1" stroke="#181818" stroke-width="0.50"/><rect x="503.07" y="436.50" width="4" height="2" fill="#F1F1F1" stroke="#181818" stroke-width="0.50"/><rect x="503.07" y="440.50" width="4" height="2" fill="#F1F1F1" stroke="#181818" stroke-width="0.50"/><text x="344.12" y="466.50" font-size="14" fill="#000000" xml:space="preserve" style="white-space: pre" font-family="sans-serif">Windows Electron壳</text><text x="344.12" y="486.50" font-size="14" fill="#000000" xml:space="preserve" style="white-space: pre" font-family="sans-serif">浮窗+Dashboard</text><text x="344.12" y="506.50" font-size="14" fill="#000000" xml:space="preserve" style="white-space: pre" font-family="sans-serif">搜索/复制/自动事实</text><text x="344.12" y="526.50" font-size="14" fill="#000000" xml:space="preserve" style="white-space: pre" font-family="sans-serif">工单分析 + 话术优化待办</text></g><g class="entity" data-qualified-name="..Agent.....API" id="ent0006" data-source-line="11"><rect x="329.51" y="637.50" width="211.18" height="90" rx="2.50" ry="2.50" fill="#F1F1F1" stroke="#181818" stroke-width="0.50"/><rect x="520.69" y="642.50" width="15" height="10" fill="#F1F1F1" stroke="#181818" stroke-width="0.50"/><rect x="518.69" y="644.50" width="4" height="2" fill="#F1F1F1" stroke="#181818" stroke-width="0.50"/><rect x="518.69" y="648.50" width="4" height="2" fill="#F1F1F1" stroke="#181818" stroke-width="0.50"/><text x="344.51" y="674.50" font-size="14" fill="#000000" xml:space="preserve" style="white-space: pre" font-family="sans-serif">Application API</text><text x="344.51" y="694.50" font-size="14" fill="#000000" xml:space="preserve" style="white-space: pre" font-family="sans-serif">九端口（含 workorders）</text><text x="344.51" y="714.50" font-size="14" fill="#000000" xml:space="preserve" style="white-space: pre" font-family="sans-serif">CR-002 复用 search/events</text></g><g class="entity" data-qualified-name="..Agent.....PG" id="ent0007" data-source-line="12"><path d="M333.38,835.50 C333.38,825.50 437.10,825.50 437.10,825.50 C437.10,825.50 540.82,825.50 540.82,835.50 L540.82,924.50 C540.82,934.50 437.10,934.50 437.10,934.50 C437.10,934.50 333.38,934.50 333.38,924.50 L333.38,835.50" fill="#F1F1F1" stroke="#181818" stroke-width="0.50"/><path d="M333.38,835.50 C333.38,845.50 437.10,845.50 437.10,845.50 C437.10,845.50 540.82,845.50 540.82,835.50" fill="#00000000" stroke="#181818" stroke-width="0.50"/><text x="343.38" y="866.50" font-size="14" fill="#000000" xml:space="preserve" style="white-space: pre" font-family="sans-serif">PostgreSQL</text><text x="343.38" y="886.50" font-size="14" fill="#000000" xml:space="preserve" style="white-space: pre" font-family="sans-serif">权威SoR</text><text x="343.38" y="906.50" font-size="14" fill="#000000" xml:space="preserve" style="white-space: pre" font-family="sans-serif">根问题 ≠ 搜索操作</text><text x="343.38" y="926.50" font-size="14" fill="#000000" xml:space="preserve" style="white-space: pre" font-family="sans-serif">work_order_* ≠ iteration_task*</text></g><g class="entity" data-qualified-name="Agent" id="ent0001" data-source-line="5"><circle cx="258.10" cy="235" r="8" fill="#F1F1F1" stroke="#181818" stroke-width="0.50"/><path d="M258.10,243 L258.10,270 M245.10,251 L271.10,251 M258.10,270 L245.10,285 M258.10,270 L271.10,285" fill="#00000000" stroke="#181818" stroke-width="0.50"/><text x="244.10" y="303.50" font-size="14" fill="#000000" xml:space="preserve" style="white-space: pre" font-family="sans-serif">坐席</text></g><g class="entity" data-qualified-name="Coach" id="ent0002" data-source-line="6"><circle cx="395.10" cy="75" r="8" fill="#F1F1F1" stroke="#181818" stroke-width="0.50"/><path d="M395.10,83 L395.10,110 M382.10,91 L408.10,91 M395.10,110 L382.10,125 M395.10,110 L408.10,125" fill="#00000000" stroke="#181818" stroke-width="0.50"/><text x="374.10" y="143.50" font-size="14" fill="#000000" xml:space="preserve" style="white-space: pre" font-family="sans-serif">话术师</text></g><g class="entity" data-qualified-name="Owner" id="ent0003" data-source-line="7"><circle cx="495.10" cy="235" r="8" fill="#F1F1F1" stroke="#181818" stroke-width="0.50"/><path d="M495.10,243 L495.10,270 M482.10,251 L508.10,251 M495.10,270 L482.10,285 M495.10,270 L508.10,285" fill="#00000000" stroke="#181818" stroke-width="0.50"/><text x="474.10" y="303.50" font-size="14" fill="#000000" xml:space="preserve" style="white-space: pre" font-family="sans-serif">负责人</text></g><g class="entity" data-qualified-name="Feishu" id="ent0008" data-source-line="15"><path d="M21.70,865.19 C26.37,853.70 34.43,853.25 42.54,861.56 C48.61,850.65 58.71,854.02 63.32,863.08 C74.22,863.68 78.39,871.48 71.81,880.57 C78.87,889.90 74.21,897.16 63.44,897.85 C58.90,908.59 49.79,908.98 42.35,901.15 C33.60,909.27 27.30,908.37 21.83,897.60 C10.03,898.07 8.65,891.40 11.58,882.12 C6.00,871.07 9.30,865.50 21.70,865.19" fill="#F1F1F1" stroke="#181818" stroke-width="0.50"/><text x="28.10" y="887" font-size="14" fill="#000000" xml:space="preserve" style="white-space: pre" font-family="sans-serif">飞书</text></g><g class="entity" data-qualified-name="Chat" id="ent0009" data-source-line="16"><path d="M149.68,457.96 C152.58,452.33 157.47,450.83 161.58,456.71 C163.85,452.02 168.29,451.26 171.61,455.53 C173.71,448.98 177.87,447.08 183.15,452.44 C187.11,445.43 192.09,446.83 196.05,452.44 C197.79,446.36 201.77,445.15 206.23,449.86 C210.16,445.38 214.10,446.48 216.46,451.53 C220.57,446.82 226.09,447.70 227.67,454.08 C231.53,447.73 237.05,449.82 239.81,455.22 C243.57,450.29 247.16,451.12 250.24,455.94 C254.50,451.38 260.40,451.74 262.11,458.59 C269.63,461.07 270.56,465.01 265.69,471.05 C274.22,473.28 275.76,480.81 268.81,486.22 C273.36,492.21 273.07,496.37 265.08,498.57 C270.22,505.03 270.00,509.78 261.25,512.40 C259.30,517.21 254.90,518.26 251.82,513.51 C248.12,520.50 244.00,519.23 239.46,514.38 C235.29,519.67 231.77,519.83 227.98,513.98 C224.09,519.39 220.67,518.56 216.75,514.01 C213.61,519.07 208.61,520.50 205.12,514.37 C201.92,518.15 198.43,518.56 195.87,513.70 C192.69,519.55 187.21,518.67 184.64,513.10 C181.49,519.25 176.02,519.60 172.40,513.58 C168.79,518.44 163.76,519.03 160.87,512.82 C156.83,518.23 152.78,518.30 149.73,511.90 C143.05,508.82 142.19,504.18 147.62,499.11 C141.07,495.81 139.69,489.63 146.44,485.20 C141.18,480.38 141.66,475.96 147.72,472.26 C142.54,467.22 141.78,461.20 149.68,457.96" fill="#F1F1F1" stroke="#181818" stroke-width="0.50"/><text x="156.10" y="481.50" font-size="14" fill="#000000" xml:space="preserve" style="white-space: pre" font-family="sans-serif">千牛抖音接待端</text><text x="156.10" y="501.50" font-size="14" fill="#000000" xml:space="preserve" style="white-space: pre" font-family="sans-serif">不读取聊天正文</text></g><g class="entity" data-qualified-name="WorkOrderSource" id="ent0010" data-source-line="17"><path d="M559.05,241.31 C561.71,233.91 567.86,233.96 572.52,239.16 C575.15,234.43 579.59,233.75 583.33,237.78 C586.02,233.64 590.70,233.26 593.46,237.69 C596.40,231.81 601.37,231.51 605.74,236.00 C608.49,229.68 614.38,229.23 618.20,234.90 C620.72,229.09 625.24,228.21 629.56,232.95 C633.28,228.14 636.99,228.23 640.44,233.25 C644.51,229.06 648.30,229.66 651.21,234.63 C654.39,229.34 659.38,229.22 662.79,234.37 C667.02,230.48 671.95,231.64 674.10,236.95 C677.71,231.68 682.19,231.00 685.77,236.98 C689.44,232.34 693.72,233.26 696.50,238.00 C700.24,232.09 706.60,232.54 709.82,238.58 C714.37,233.50 717.86,234.09 721.25,239.81 C727.87,244.34 728.47,249.57 722.58,255.18 C729.78,257.40 731.31,263.03 725.65,268.26 C731.26,273.95 730.17,279.31 722.50,281.94 C727.86,285.86 727.19,292.27 721.42,295.28 C717.48,301.35 713.40,301.70 709.04,295.71 C705.44,301.19 701.45,300.79 697.68,295.89 C695.73,302.07 690.90,302.31 686.79,298.17 C683.72,303.74 678.23,304.13 674.86,298.50 C672.71,304.43 667.39,307.33 662.46,301.42 C658.90,307.70 654.63,307.14 650.87,301.62 C648.50,306.29 644.30,307.33 641.19,302.36 C637.41,306.97 631.95,307.07 629.02,301.36 C625.40,307.88 619.90,306.97 616.60,301.04 C612.13,304.78 608.88,303.94 606.77,298.50 C602.46,303.61 598.43,303.88 594.07,298.56 C590.14,303.99 584.95,302.53 582.46,297.03 C579.38,301.74 575.23,301.98 572.50,296.69 C568.40,302.59 562.37,302.68 559.59,295.41 C553.10,291.70 553.27,285.81 558.90,281.51 C552.88,276.51 553.88,272.55 559.68,268.25 C552.82,264.84 553.31,258.69 559.60,255.20 C552.81,251.50 552.24,245.54 559.05,241.31" fill="#F1F1F1" stroke="#181818" stroke-width="0.50"/><text x="565.97" y="263.50" font-size="14" fill="#000000" xml:space="preserve" style="white-space: pre" font-family="sans-serif">班牛/业务工单系统</text><text x="565.97" y="283.50" font-size="14" fill="#000000" xml:space="preserve" style="white-space: pre" font-family="sans-serif">仅批准 CSV/XLSX 导出</text></g><g class="entity" data-qualified-name="DS" id="ent0011" data-source-line="18"><path d="M251.80,1203.09 C255.28,1197.86 259.14,1198.29 262.87,1202.80 C266.23,1195.99 271.57,1195.83 275.22,1202.54 C277.52,1196.47 281.47,1196.24 285.80,1200.44 C290.52,1194.96 295.39,1195.42 299.51,1201.16 C301.96,1195.06 305.70,1195.45 309.72,1199.59 C313.60,1194.77 317.07,1194.67 321.11,1199.40 C324.69,1194.92 330.01,1194.83 332.60,1200.51 C337.67,1195.17 342.39,1195.49 345.64,1202.43 C349.37,1196.48 354.41,1197.44 357.20,1203.35 C360.85,1198.19 365.02,1196.66 369.19,1202.81 C375.09,1206.54 374.80,1211.38 369.29,1215.21 C375.72,1216.95 378.89,1222.93 372.80,1228.08 C379.84,1231.57 379.27,1236.16 373.69,1240.54 C379.96,1245.67 379.31,1249.57 372.44,1253.43 C377.23,1257.82 376.08,1263.01 369.74,1264.76 C375.72,1268.68 376.02,1273.70 369.41,1277.29 C365.87,1283.49 361.06,1284.44 355.97,1279.09 C352.33,1284.46 348.67,1285.30 344.72,1279.40 C341.85,1285.39 336.42,1284.86 332.99,1280.01 C329.05,1286.10 325.31,1286.57 320.93,1280.45 C318.35,1286.78 314.31,1286.49 310.09,1282.11 C306.66,1286.22 301.75,1285.46 299.44,1280.74 C294.42,1286.88 290.70,1284.63 287.17,1279.17 C283.33,1284.83 279.39,1284.67 275.23,1279.51 C271.09,1284.87 266.78,1284.98 262.76,1279.39 C259.22,1283.41 254.57,1283.58 252.30,1278.01 C246.07,1276.23 243.61,1270.91 248.50,1265.69 C242.13,1263.85 240.46,1257.72 244.97,1252.88 C239.24,1250.61 238.26,1244.78 243.21,1240.94 C237.51,1235.35 237.98,1230.56 245.60,1227.29 C240.96,1222.94 241.44,1217.58 247.64,1215.02 C244.03,1209.59 244.47,1204.71 251.80,1203.09" fill="#F1F1F1" stroke="#181818" stroke-width="0.50"/><text x="257.75" y="1226.50" font-size="14" fill="#000000" xml:space="preserve" style="white-space: pre" font-family="sans-serif">DeepSeek</text><text x="257.75" y="1246.50" font-size="14" fill="#000000" xml:space="preserve" style="white-space: pre" font-family="sans-serif">在线排序默认关</text><text x="257.75" y="1266.50" font-size="14" fill="#000000" xml:space="preserve" style="white-space: pre" font-family="sans-serif">离线teacher另批</text></g><g class="entity" data-qualified-name="OfflineLab" id="ent0012" data-source-line="19"><rect x="333.33" y="1034.50" width="237.53" height="80" rx="2.50" ry="2.50" fill="#F1F1F1" stroke="#181818" stroke-width="0.50"/><text x="343.33" y="1061.50" font-size="14" fill="#000000" xml:space="preserve" style="white-space: pre" font-family="sans-serif">CR-003离线预埋</text><text x="343.33" y="1081.50" font-size="14" fill="#000000" xml:space="preserve" style="white-space: pre" font-family="sans-serif">49/50 · 当前NO-GO</text><text x="343.33" y="1101.50" font-size="14" fill="#000000" xml:space="preserve" style="white-space: pre" font-family="sans-serif">Embedding shadow + local student</text></g><g class="link" data-entity-1="ent0001" data-entity-2="ent0005" id="lnk13" data-source-line="21" data-link-type="dependency"><path d="M272.4768,293.5 C285.2268,315.76 304.9168,348.27 325.0968,374.5 C339.3968,393.09 352.9063,408.5225 368.8263,425.4025" fill="none" stroke="#000000" stroke-width="1"/><polygon points="372.26,429.04 368.99,419.75 368.83,425.40 363.17,425.24 372.26,429.04" fill="#000000" stroke="#000000" stroke-width="1"/><text x="326.10" y="361.50" font-size="13" fill="#000000" xml:space="preserve" style="white-space: pre" font-family="sans-serif">同步 UI</text></g><g class="link" data-entity-1="ent0002" data-entity-2="ent0005" id="lnk14" data-source-line="22" data-link-type="dependency"><path d="M398.4268,146.67 C404.1668,214.11 415.5031,347.258 422.0331,424.028" fill="none" stroke="#000000" stroke-width="1"/><polygon points="422.46,429.01 425.68,419.70 422.03,424.03 417.71,420.38 422.46,429.01" fill="#000000" stroke="#000000" stroke-width="1"/><text x="412.63" y="272.50" font-size="13" fill="#000000" xml:space="preserve" style="white-space: pre" font-family="sans-serif">同步 UI</text></g><g class="link" data-entity-1="ent0003" data-entity-2="ent0005" id="lnk15" data-source-line="23" data-link-type="dependency"><path d="M482.7868,306.62 C471.9868,340.9 457.699,386.311 445.679,424.471" fill="none" stroke="#000000" stroke-width="1"/><polygon points="444.18,429.24 450.70,421.86 445.68,424.47 443.07,419.45 444.18,429.24" fill="#000000" stroke="#000000" stroke-width="1"/><text x="474.11" y="361.50" font-size="13" fill="#000000" xml:space="preserve" style="white-space: pre" font-family="sans-serif">同步 UI</text></g><g class="link" data-entity-1="ent0005" data-entity-2="ent0006" id="lnk16" data-source-line="24" data-link-type="dependency"><path d="M429.3168,539.84 C430.5668,570.54 431.9126,603.4342 433.0926,632.2942" fill="none" stroke="#000000" stroke-width="1"/><polygon points="433.30,637.29 436.93,628.13 433.09,632.29 428.93,628.46 433.30,637.29" fill="#000000" stroke="#000000" stroke-width="1"/><text x="433.05" y="585.50" font-size="13" fill="#000000" xml:space="preserve" style="white-space: pre" font-family="sans-serif">搜索+复制+无命中/放弃/升级</text><text x="469.16" y="603.50" font-size="13" fill="#000000" xml:space="preserve" style="white-space: pre" font-family="sans-serif">同步 HTTPS /v1</text></g><g class="link" data-entity-1="ent0006" data-entity-2="ent0007" id="lnk17" data-source-line="25" data-link-type="dependency"><path d="M435.5468,727.86 C435.8468,756.7 436.1861,789.4903 436.4961,820.0603" fill="none" stroke="#000000" stroke-width="1"/><polygon points="436.55,825.06 440.46,816.02 436.50,820.06 432.46,816.10 436.55,825.06" fill="#000000" stroke="#000000" stroke-width="1"/><text x="437.22" y="773.50" font-size="13" fill="#000000" xml:space="preserve" style="white-space: pre" font-family="sans-serif">权威内容+证据事件</text><text x="465.20" y="791.50" font-size="13" fill="#000000" xml:space="preserve" style="white-space: pre" font-family="sans-serif">同步 SQL</text></g><g class="link" data-entity-1="ent0006" data-entity-2="ent0008" id="lnk18" data-source-line="27" data-link-type="dependency"><path d="M329.1768,692.05 C234.1968,701.93 104.3868,721.64 68.0968,757.5 C42.3168,782.97 39.015,822.3426 39.905,849.8326" fill="none" stroke="#000000" stroke-width="1"/><polygon points="40.07,854.83 43.77,845.71 39.91,849.83 35.78,845.96 40.07,854.83" fill="#000000" stroke="#000000" stroke-width="1"/><text x="69.10" y="782.50" font-size="13" fill="#000000" xml:space="preserve" style="white-space: pre" font-family="sans-serif">同步 OAuth（production Must）</text></g><g class="link" data-entity-1="ent0002" data-entity-2="ent0008" id="lnk19" data-source-line="28" data-link-type="dependency"><path d="M373.7368,111.47 C293.2968,127.02 13.0968,186.82 13.0968,265.5 C13.0968,265.5 13.0968,265.5 13.0968,683.5 C13.0968,745.78 26.5532,813.1479 35.0332,849.9179" fill="none" stroke="#181818" stroke-width="1" stroke-dasharray="7,7"/><polygon points="36.16,854.79 38.03,845.12 35.03,849.92 30.24,846.92 36.16,854.79" fill="#181818" stroke="#181818" stroke-width="1"/><text x="14.10" y="490.50" font-size="13" fill="#000000" xml:space="preserve" style="white-space: pre" font-family="sans-serif">编辑台非生效源</text></g><g class="link" data-entity-1="ent0001" data-entity-2="ent0009" id="lnk20" data-source-line="29" data-link-type="dependency"><path d="M243.6068,279.75 C229.9168,292.36 210.2968,313.38 202.0968,336.5 C189.0368,373.31 191.8432,413.6966 196.8732,444.1966" fill="none" stroke="#181818" stroke-width="1" stroke-dasharray="7,7"/><polygon points="197.69,449.13 200.17,439.60 196.87,444.20 192.28,440.90 197.69,449.13" fill="#181818" stroke="#181818" stroke-width="1"/><text x="203.10" y="352.50" font-size="13" fill="#000000" xml:space="preserve" style="white-space: pre" font-family="sans-serif">人工粘贴/发送</text><text x="204.90" y="370.50" font-size="13" fill="#000000" xml:space="preserve" style="white-space: pre" font-family="sans-serif">系统不可观测</text></g><g class="link" data-entity-1="ent0002" data-entity-2="ent0010" id="lnk21" data-source-line="30" data-link-type="dependency"><path d="M416.3268,121.25 C453.8868,145.57 528.9196,194.1627 582.0396,228.5527" fill="none" stroke="#181818" stroke-width="1" stroke-dasharray="7,7"/><polygon points="586.24,231.27 580.86,223.02 582.04,228.55 576.51,229.74 586.24,231.27" fill="#181818" stroke="#181818" stroke-width="1"/><text x="532.71" y="192.50" font-size="13" fill="#000000" xml:space="preserve" style="white-space: pre" font-family="sans-serif">人工导出</text></g><g class="link" data-entity-1="ent0010" data-entity-2="ent0005" id="lnk22" data-source-line="31" data-link-type="dependency"><path d="M605.5068,301.73 C571.8768,335.99 523.1392,385.6516 483.8592,425.6716" fill="none" stroke="#181818" stroke-width="1" stroke-dasharray="7,7"/><polygon points="480.36,429.24 489.52,425.62 483.86,425.67 483.81,420.02 480.36,429.24" fill="#181818" stroke="#181818" stroke-width="1"/><text x="571.53" y="352.50" font-size="13" fill="#000000" xml:space="preserve" style="white-space: pre" font-family="sans-serif">批准文件导入</text><text x="576.94" y="370.50" font-size="13" fill="#000000" xml:space="preserve" style="white-space: pre" font-family="sans-serif">无 API 写回</text></g><g class="link" data-entity-1="ent0006" data-entity-2="ent0011" id="lnk23" data-source-line="32" data-link-type="dependency"><path d="M384.2368,727.71 C358.6268,753.37 330.0968,787.98 316.0968,825.5 C268.7668,952.31 286.5963,1111.7095 299.6663,1189.2995" fill="none" stroke="#666666" stroke-width="1" stroke-dasharray="7,7"/><polygon points="300.50,1194.23 302.95,1184.69 299.67,1189.30 295.06,1186.02 300.50,1194.23" fill="#666666" stroke="#666666" stroke-width="1"/><text x="288.45" y="991.50" font-size="13" fill="#000000" xml:space="preserve" style="white-space: pre" font-family="sans-serif">异步HTTP 超时降级</text></g><g class="link" data-entity-1="ent0007" data-entity-2="ent0012" id="lnk24" data-source-line="33" data-link-type="dependency"><path d="M441.2968,934.88 C443.7468,966.36 446.3983,1000.4051 448.6283,1029.0151" fill="none" stroke="#666666" stroke-width="1" stroke-dasharray="7,7"/><polygon points="449.02,1034 452.31,1024.72 448.63,1029.02 444.33,1025.34 449.02,1034" fill="#666666" stroke="#666666" stroke-width="1"/><text x="478.81" y="982.50" font-size="13" fill="#000000" xml:space="preserve" style="white-space: pre" font-family="sans-serif">仅获批候选引用</text><text x="447.38" y="1000.50" font-size="13" fill="#000000" xml:space="preserve" style="white-space: pre" font-family="sans-serif">禁止 runtime→train 自动链</text></g><g class="link" data-entity-1="ent0012" data-entity-2="ent0011" id="lnk25" data-source-line="34" data-link-type="dependency"><path d="M417.4768,1114.96 C396.4868,1138.89 372.9441,1165.7213 351.2241,1190.4813" fill="none" stroke="#666666" stroke-width="1" stroke-dasharray="7,7"/><polygon points="347.93,1194.24 356.87,1190.11 351.22,1190.48 350.85,1184.84 347.93,1194.24" fill="#666666" stroke="#666666" stroke-width="1"/><text x="390.16" y="1160.50" font-size="13" fill="#000000" xml:space="preserve" style="white-space: pre" font-family="sans-serif">teacher 仅许可+预算获批</text></g><g class="legend" data-source-line="36"><rect x="368.39" y="1307.88" width="358.92" height="130" rx="7.50" ry="7.50" fill="#DDDDDD" stroke="#000000" stroke-width="1"/><text x="373.39" y="1329.88" font-size="14" fill="#000000" xml:space="preserve" style="white-space: pre" font-family="sans-serif">实线 = 同步调用</text><text x="373.39" y="1349.88" font-size="14" fill="#000000" xml:space="preserve" style="white-space: pre" font-family="sans-serif">虚线 = 异步或可选；production 飞书 OAuth 为实线 Must</text><text x="373.39" y="1369.88" font-size="14" fill="#000000" xml:space="preserve" style="white-space: pre" font-family="sans-serif">CR-002 = 产品内自动事实，不是聊天记录</text><text x="373.39" y="1389.88" font-size="14" fill="#000000" xml:space="preserve" style="white-space: pre" font-family="sans-serif">修改/发送/正确性 = Pilot 应用外三维抽样</text><text x="373.39" y="1409.88" font-size="14" fill="#000000" xml:space="preserve" style="white-space: pre" font-family="sans-serif">CR-003 49/50 = 训练离线预埋，不扩大真实数据授权</text><text x="373.39" y="1429.88" font-size="14" fill="#000000" xml:space="preserve" style="white-space: pre" font-family="sans-serif">禁止全局剪贴板监听；平台以人工确认为准</text></g></g></svg>
