<svg class="diagram-svg" xmlns="http://www.w3.org/2000/svg" version="1.1" viewBox="0 0 2105 1518" width="2105" height="1518"><defs/><g><g class="title" data-source-line="2"><text x="952.45" y="25" font-size="14" fill="#000000" xml:space="preserve" style="white-space: pre" font-weight="bold" font-family="sans-serif">运行容器与端口 C4 Containers</text><text x="840.46" y="45" font-size="14" fill="#000000" xml:space="preserve" style="white-space: pre" font-weight="bold" font-family="sans-serif">目的：部署单元、红线端口、同步异步边与 DEC-042 内容治理边界</text></g><g class="cluster" data-qualified-name="...." id="ent0001" data-source-line="4"><rect x="536" y="68.50" width="874" height="281" rx="2.50" ry="2.50" fill="#00000000" stroke="#181818" stroke-width="1"/><text x="945" y="85.50" font-size="14" fill="#000000" xml:space="preserve" style="white-space: pre" font-weight="bold" font-family="sans-serif">客户端层</text></g><g class="cluster" data-qualified-name="API. ......" id="ent0006" data-source-line="11"><rect x="7" y="402.50" width="1384" height="417.50" rx="2.50" ry="2.50" fill="#00000000" stroke="#181818" stroke-width="1"/><text x="636.53" y="419.50" font-size="14" fill="#000000" xml:space="preserve" style="white-space: pre" font-weight="bold" font-family="sans-serif">API层 无状态可扩展</text></g><g class="cluster" data-qualified-name="..." id="ent0016" data-source-line="23"><rect x="1415" y="655.50" width="548" height="224" rx="2.50" ry="2.50" fill="#00000000" stroke="#181818" stroke-width="1"/><text x="1668" y="672.50" font-size="14" fill="#000000" xml:space="preserve" style="white-space: pre" font-weight="bold" font-family="sans-serif">数据层</text></g><g class="cluster" data-qualified-name="........" id="ent0019" data-source-line="28"><rect x="1712" y="244.50" width="338" height="323" rx="2.50" ry="2.50" fill="#00000000" stroke="#181818" stroke-width="1"/><text x="1825" y="261.50" font-size="14" fill="#000000" xml:space="preserve" style="white-space: pre" font-weight="bold" font-family="sans-serif">一期异步必经路径</text></g><g class="cluster" data-qualified-name=".. . Deferred .." id="ent0022" data-source-line="33"><rect x="1260" y="949.50" width="648" height="145" rx="2.50" ry="2.50" fill="#00000000" stroke="#181818" stroke-width="1"/><text x="1516.46" y="966.50" font-size="14" fill="#000000" xml:space="preserve" style="white-space: pre" font-weight="bold" font-family="sans-serif">可选 / Deferred 旁路</text></g><g class="entity" data-qualified-name=".....Float" id="ent0002" data-source-line="5"><rect x="552.21" y="107.50" width="249.58" height="90" rx="2.50" ry="2.50" fill="#F1F1F1" stroke="#181818" stroke-width="0.50"/><rect x="781.79" y="112.50" width="15" height="10" fill="#F1F1F1" stroke="#181818" stroke-width="0.50"/><rect x="779.79" y="114.50" width="4" height="2" fill="#F1F1F1" stroke="#181818" stroke-width="0.50"/><rect x="779.79" y="118.50" width="4" height="2" fill="#F1F1F1" stroke="#181818" stroke-width="0.50"/><text x="567.21" y="142.50" font-size="14" fill="#000000" xml:space="preserve" style="white-space: pre" font-family="sans-serif">Float浮窗</text><text x="567.21" y="162.50" font-size="14" fill="#000000" xml:space="preserve" style="white-space: pre" font-family="sans-serif">搜索/复制/无命中/放弃/升级</text><text x="567.21" y="182.50" font-size="14" fill="#000000" xml:space="preserve" style="white-space: pre" font-family="sans-serif">placeholder仅内存渲染+二次确认</text></g><g class="entity" data-qualified-name=".....Dash" id="ent0003" data-source-line="6"><rect x="836.95" y="117.50" width="288.11" height="70" rx="2.50" ry="2.50" fill="#F1F1F1" stroke="#181818" stroke-width="0.50"/><rect x="1105.06" y="122.50" width="15" height="10" fill="#F1F1F1" stroke="#181818" stroke-width="0.50"/><rect x="1103.06" y="124.50" width="4" height="2" fill="#F1F1F1" stroke="#181818" stroke-width="0.50"/><rect x="1103.06" y="128.50" width="4" height="2" fill="#F1F1F1" stroke="#181818" stroke-width="0.50"/><text x="851.95" y="152.50" font-size="14" fill="#000000" xml:space="preserve" style="white-space: pre" font-family="sans-serif">Dashboard</text><text x="851.95" y="172.50" font-size="14" fill="#000000" xml:space="preserve" style="white-space: pre" font-family="sans-serif">自动事实双账 | 工单分析 | 话术优化待办</text></g><g class="entity" data-qualified-name=".....IPC" id="ent0004" data-source-line="7"><rect x="618.72" y="283.50" width="116.55" height="50" rx="2.50" ry="2.50" fill="#F1F1F1" stroke="#181818" stroke-width="0.50"/><rect x="715.27" y="288.50" width="15" height="10" fill="#F1F1F1" stroke="#181818" stroke-width="0.50"/><rect x="713.27" y="290.50" width="4" height="2" fill="#F1F1F1" stroke="#181818" stroke-width="0.50"/><rect x="713.27" y="294.50" width="4" height="2" fill="#F1F1F1" stroke="#181818" stroke-width="0.50"/><text x="633.72" y="318.50" font-size="14" fill="#000000" xml:space="preserve" style="white-space: pre" font-family="sans-serif">Preload IPC</text></g><g class="entity" data-qualified-name=".....Cache" id="ent0005" data-source-line="8"><path d="M1160.17,118 C1160.17,108 1277.00,108 1277.00,108 C1277.00,108 1393.82,108 1393.82,118 L1393.82,187 C1393.82,197 1277.00,197 1277.00,197 C1277.00,197 1160.17,197 1160.17,187 L1160.17,118" fill="#F1F1F1" stroke="#181818" stroke-width="0.50"/><path d="M1160.17,118 C1160.17,128 1277.00,128 1277.00,128 C1277.00,128 1393.82,128 1393.82,118" fill="#00000000" stroke="#181818" stroke-width="0.50"/><text x="1170.17" y="147" font-size="14" fill="#000000" xml:space="preserve" style="white-space: pre" font-family="sans-serif">可选SQLite缓存</text><text x="1170.17" y="167" font-size="14" fill="#000000" xml:space="preserve" style="white-space: pre" font-family="sans-serif">完整snapshot本地按[from,to)过滤</text><text x="1170.17" y="187" font-size="14" fill="#000000" xml:space="preserve" style="white-space: pre" font-family="sans-serif">非SoR</text></g><g class="entity" data-qualified-name="API. .......Auth" id="ent0007" data-source-line="12"><rect x="22.79" y="471.50" width="68.42" height="50" rx="2.50" ry="2.50" fill="#F1F1F1" stroke="#181818" stroke-width="0.50"/><rect x="71.21" y="476.50" width="15" height="10" fill="#F1F1F1" stroke="#181818" stroke-width="0.50"/><rect x="69.21" y="478.50" width="4" height="2" fill="#F1F1F1" stroke="#181818" stroke-width="0.50"/><rect x="69.21" y="482.50" width="4" height="2" fill="#F1F1F1" stroke="#181818" stroke-width="0.50"/><text x="37.79" y="506.50" font-size="14" fill="#000000" xml:space="preserve" style="white-space: pre" font-family="sans-serif">auth</text></g><g class="entity" data-qualified-name="API. .......Search" id="ent0008" data-source-line="13"><rect x="125.93" y="441.50" width="316.15" height="110" rx="2.50" ry="2.50" fill="#F1F1F1" stroke="#181818" stroke-width="0.50"/><rect x="422.08" y="446.50" width="15" height="10" fill="#F1F1F1" stroke="#181818" stroke-width="0.50"/><rect x="420.08" y="448.50" width="4" height="2" fill="#F1F1F1" stroke="#181818" stroke-width="0.50"/><rect x="420.08" y="452.50" width="4" height="2" fill="#F1F1F1" stroke="#181818" stroke-width="0.50"/><text x="140.93" y="476.50" font-size="14" fill="#000000" xml:space="preserve" style="white-space: pre" font-family="sans-serif">search 红线</text><text x="140.93" y="496.50" font-size="14" fill="#000000" xml:space="preserve" style="white-space: pre" font-family="sans-serif">只经 search_recommendable_scripts</text><text x="140.93" y="516.50" font-size="14" fill="#000000" xml:space="preserve" style="white-space: pre" font-family="sans-serif">显式scope + taxonomy/risk/review/quality</text><text x="140.93" y="536.50" font-size="14" fill="#000000" xml:space="preserve" style="white-space: pre" font-family="sans-serif">封闭最小public mapper</text></g><g class="entity" data-qualified-name="API. .......Events" id="ent0009" data-source-line="14"><rect x="476.59" y="471.50" width="114.82" height="50" rx="2.50" ry="2.50" fill="#F1F1F1" stroke="#181818" stroke-width="0.50"/><rect x="571.41" y="476.50" width="15" height="10" fill="#F1F1F1" stroke="#181818" stroke-width="0.50"/><rect x="569.41" y="478.50" width="4" height="2" fill="#F1F1F1" stroke="#181818" stroke-width="0.50"/><rect x="569.41" y="482.50" width="4" height="2" fill="#F1F1F1" stroke="#181818" stroke-width="0.50"/><text x="491.59" y="506.50" font-size="14" fill="#000000" xml:space="preserve" style="white-space: pre" font-family="sans-serif">events 红线</text></g><g class="entity" data-qualified-name="API. .......Metrics" id="ent0010" data-source-line="15"><rect x="625.93" y="471.50" width="88.13" height="50" rx="2.50" ry="2.50" fill="#F1F1F1" stroke="#181818" stroke-width="0.50"/><rect x="694.06" y="476.50" width="15" height="10" fill="#F1F1F1" stroke="#181818" stroke-width="0.50"/><rect x="692.06" y="478.50" width="4" height="2" fill="#F1F1F1" stroke="#181818" stroke-width="0.50"/><rect x="692.06" y="482.50" width="4" height="2" fill="#F1F1F1" stroke="#181818" stroke-width="0.50"/><text x="640.93" y="506.50" font-size="14" fill="#000000" xml:space="preserve" style="white-space: pre" font-family="sans-serif">metrics</text></g><g class="entity" data-qualified-name="API. .......WorkOrders" id="ent0011" data-source-line="16"><rect x="749.29" y="461.50" width="145.42" height="70" rx="2.50" ry="2.50" fill="#F1F1F1" stroke="#181818" stroke-width="0.50"/><rect x="874.71" y="466.50" width="15" height="10" fill="#F1F1F1" stroke="#181818" stroke-width="0.50"/><rect x="872.71" y="468.50" width="4" height="2" fill="#F1F1F1" stroke="#181818" stroke-width="0.50"/><rect x="872.71" y="472.50" width="4" height="2" fill="#F1F1F1" stroke="#181818" stroke-width="0.50"/><text x="764.29" y="496.50" font-size="14" fill="#000000" xml:space="preserve" style="white-space: pre" font-family="sans-serif">workorders 红线</text><text x="764.29" y="516.50" font-size="14" fill="#000000" xml:space="preserve" style="white-space: pre" font-family="sans-serif">只读分析</text></g><g class="entity" data-qualified-name="API. .......Content" id="ent0012" data-source-line="17"><rect x="930" y="441.50" width="222.00" height="110" rx="2.50" ry="2.50" fill="#F1F1F1" stroke="#181818" stroke-width="0.50"/><rect x="1132.00" y="446.50" width="15" height="10" fill="#F1F1F1" stroke="#181818" stroke-width="0.50"/><rect x="1130.00" y="448.50" width="4" height="2" fill="#F1F1F1" stroke="#181818" stroke-width="0.50"/><rect x="1130.00" y="452.50" width="4" height="2" fill="#F1F1F1" stroke="#181818" stroke-width="0.50"/><text x="945" y="476.50" font-size="14" fill="#000000" xml:space="preserve" style="white-space: pre" font-family="sans-serif">content 红线</text><text x="945" y="496.50" font-size="14" fill="#000000" xml:space="preserve" style="white-space: pre" font-family="sans-serif">稳定Question·质量门</text><text x="945" y="516.50" font-size="14" fill="#000000" xml:space="preserve" style="white-space: pre" font-family="sans-serif">固定ASCII键+C排序受限hash</text><text x="945" y="536.50" font-size="14" fill="#000000" xml:space="preserve" style="white-space: pre" font-family="sans-serif">含promoted_by_role</text></g><g class="entity" data-qualified-name="API. .......Announce" id="ent0013" data-source-line="18"><rect x="1186.74" y="451.50" width="188.53" height="90" rx="2.50" ry="2.50" fill="#F1F1F1" stroke="#181818" stroke-width="0.50"/><rect x="1355.27" y="456.50" width="15" height="10" fill="#F1F1F1" stroke="#181818" stroke-width="0.50"/><rect x="1353.27" y="458.50" width="4" height="2" fill="#F1F1F1" stroke="#181818" stroke-width="0.50"/><rect x="1353.27" y="462.50" width="4" height="2" fill="#F1F1F1" stroke="#181818" stroke-width="0.50"/><text x="1201.74" y="486.50" font-size="14" fill="#000000" xml:space="preserve" style="white-space: pre" font-family="sans-serif">announce</text><text x="1201.74" y="506.50" font-size="14" fill="#000000" xml:space="preserve" style="white-space: pre" font-family="sans-serif">完整不可变snapshot</text><text x="1201.74" y="526.50" font-size="14" fill="#000000" xml:space="preserve" style="white-space: pre" font-family="sans-serif">封闭最小public mapper</text></g><g class="entity" data-qualified-name="API. .......Policy" id="ent0014" data-source-line="19"><rect x="34.06" y="754" width="77.88" height="50" rx="2.50" ry="2.50" fill="#F1F1F1" stroke="#181818" stroke-width="0.50"/><rect x="91.94" y="759" width="15" height="10" fill="#F1F1F1" stroke="#181818" stroke-width="0.50"/><rect x="89.94" y="761" width="4" height="2" fill="#F1F1F1" stroke="#181818" stroke-width="0.50"/><rect x="89.94" y="765" width="4" height="2" fill="#F1F1F1" stroke="#181818" stroke-width="0.50"/><text x="49.06" y="789" font-size="14" fill="#000000" xml:space="preserve" style="white-space: pre" font-family="sans-serif">policy</text></g><g class="entity" data-qualified-name="API. .......Redact" id="ent0015" data-source-line="20"><rect x="147.42" y="754" width="101.15" height="50" rx="2.50" ry="2.50" fill="#F1F1F1" stroke="#181818" stroke-width="0.50"/><rect x="228.57" y="759" width="15" height="10" fill="#F1F1F1" stroke="#181818" stroke-width="0.50"/><rect x="226.57" y="761" width="4" height="2" fill="#F1F1F1" stroke="#181818" stroke-width="0.50"/><rect x="226.57" y="765" width="4" height="2" fill="#F1F1F1" stroke="#181818" stroke-width="0.50"/><text x="162.42" y="789" font-size="14" fill="#000000" xml:space="preserve" style="white-space: pre" font-family="sans-serif">redaction</text></g><g class="entity" data-qualified-name="....PG" id="ent0017" data-source-line="24"><path d="M1430.60,704.50 C1430.60,694.50 1559.00,694.50 1559.00,694.50 C1559.00,694.50 1687.41,694.50 1687.41,704.50 L1687.41,853.50 C1687.41,863.50 1559.00,863.50 1559.00,863.50 C1559.00,863.50 1430.60,863.50 1430.60,853.50 L1430.60,704.50" fill="#F1F1F1" stroke="#181818" stroke-width="0.50"/><path d="M1430.60,704.50 C1430.60,714.50 1559.00,714.50 1559.00,714.50 C1559.00,714.50 1687.41,714.50 1687.41,704.50" fill="#00000000" stroke="#181818" stroke-width="0.50"/><text x="1440.60" y="733.50" font-size="14" fill="#000000" xml:space="preserve" style="white-space: pre" font-family="sans-serif">PostgreSQL SoR</text><text x="1440.60" y="753.50" font-size="14" fill="#000000" xml:space="preserve" style="white-space: pre" font-family="sans-serif">root question ≠ search operation</text><text x="1440.60" y="773.50" font-size="14" fill="#000000" xml:space="preserve" style="white-space: pre" font-family="sans-serif">work_order_* ≠ iteration_task*</text><text x="1440.60" y="793.50" font-size="14" fill="#000000" xml:space="preserve" style="white-space: pre" font-family="sans-serif">Question复合版本+origin key version</text><text x="1440.60" y="813.50" font-size="14" fill="#000000" xml:space="preserve" style="white-space: pre" font-family="sans-serif">审核决定 ≠ 质量plan/evidence</text><text x="1440.60" y="833.50" font-size="14" fill="#000000" xml:space="preserve" style="white-space: pre" font-family="sans-serif">population_manifest_hash</text><text x="1440.60" y="853.50" font-size="14" fill="#000000" xml:space="preserve" style="white-space: pre" font-family="sans-serif">semantic先退役留墓碑再删query</text></g><g class="entity" data-qualified-name="....OBJ" id="ent0018" data-source-line="25"><path d="M1725.40,730 L1766.40,730 A3.75,3.75 0 0 1 1768.90,732.50 L1775.90,751 L1944.59,751 A2.50,2.50 0 0 1 1947.09,753.50 L1947.09,825.50 A2.50,2.50 0 0 1 1944.59,828 L1725.40,828 A2.50,2.50 0 0 1 1722.90,825.50 L1722.90,732.50 A2.50,2.50 0 0 1 1725.40,730" fill="#F1F1F1" stroke="#181818" stroke-width="0.50"/><line x1="1722.90" y1="751" x2="1775.90" y2="751" stroke="#181818" stroke-width="0.50"/><text x="1732.90" y="773" font-size="14" fill="#000000" xml:space="preserve" style="white-space: pre" font-family="sans-serif">共享持久 import 存储</text><text x="1732.90" y="793" font-size="14" fill="#000000" xml:space="preserve" style="white-space: pre" font-family="sans-serif">Object / 跨节点 RWX Must</text><text x="1732.90" y="813" font-size="14" fill="#000000" xml:space="preserve" style="white-space: pre" font-family="sans-serif">filesystem 仅 single_host 共卷</text></g><g class="entity" data-qualified-name=".........Outbox" id="ent0020" data-source-line="29"><path d="M1764.12,283.50 L1935.88,283.50 C1940.88,283.50 1940.88,308.50 1940.88,308.50 C1940.88,308.50 1940.88,333.50 1935.88,333.50 L1764.12,333.50 C1759.12,333.50 1759.12,308.50 1759.12,308.50 C1759.12,308.50 1759.12,283.50 1764.12,283.50" fill="#F1F1F1" stroke="#181818" stroke-width="0.50"/><path d="M1935.88,283.50 C1930.88,283.50 1930.88,308.50 1930.88,308.50 C1930.88,333.50 1935.88,333.50 1935.88,333.50" fill="#00000000" stroke="#181818" stroke-width="0.50"/><text x="1764.12" y="303.50" font-size="14" fill="#000000" xml:space="preserve" style="white-space: pre" font-family="sans-serif">outbox_jobs</text><text x="1764.12" y="323.50" font-size="14" fill="#000000" xml:space="preserve" style="white-space: pre" font-family="sans-serif">PostgreSQL 持久表 Must</text></g><g class="entity" data-qualified-name=".........ImportWorker" id="ent0021" data-source-line="30"><rect x="1727.78" y="441.50" width="306.43" height="110" rx="2.50" ry="2.50" fill="#F1F1F1" stroke="#181818" stroke-width="0.50"/><rect x="2014.21" y="446.50" width="15" height="10" fill="#F1F1F1" stroke="#181818" stroke-width="0.50"/><rect x="2012.21" y="448.50" width="4" height="2" fill="#F1F1F1" stroke="#181818" stroke-width="0.50"/><rect x="2012.21" y="452.50" width="4" height="2" fill="#F1F1F1" stroke="#181818" stroke-width="0.50"/><text x="1742.78" y="476.50" font-size="14" fill="#000000" xml:space="preserve" style="white-space: pre" font-family="sans-serif">TypeScript Import Worker</text><text x="1742.78" y="496.50" font-size="14" fill="#000000" xml:space="preserve" style="white-space: pre" font-family="sans-serif">content / work-order 分 capability</text><text x="1742.78" y="516.50" font-size="14" fill="#000000" xml:space="preserve" style="white-space: pre" font-family="sans-serif">claim + heartbeat + lease_version</text><text x="1742.78" y="536.50" font-size="14" fill="#000000" xml:space="preserve" style="white-space: pre" font-family="sans-serif">freeze quality plan + population manifest</text></g><g class="entity" data-qualified-name=".. . Deferred ...LLM" id="ent0023" data-source-line="34"><rect x="1275.56" y="1008.50" width="118.88" height="50" rx="2.50" ry="2.50" fill="#F1F1F1" stroke="#181818" stroke-width="0.50"/><rect x="1374.44" y="1013.50" width="15" height="10" fill="#F1F1F1" stroke="#181818" stroke-width="0.50"/><rect x="1372.44" y="1015.50" width="4" height="2" fill="#F1F1F1" stroke="#181818" stroke-width="0.50"/><rect x="1372.44" y="1019.50" width="4" height="2" fill="#F1F1F1" stroke="#181818" stroke-width="0.50"/><text x="1290.56" y="1043.50" font-size="14" fill="#000000" xml:space="preserve" style="white-space: pre" font-family="sans-serif">LLM Ranker</text></g><g class="entity" data-qualified-name=".. . Deferred ...CleanWorker" id="ent0024" data-source-line="35"><rect x="1723.67" y="998.50" width="168.66" height="70" rx="2.50" ry="2.50" fill="#F1F1F1" stroke="#181818" stroke-width="0.50"/><rect x="1872.33" y="1003.50" width="15" height="10" fill="#F1F1F1" stroke="#181818" stroke-width="0.50"/><rect x="1870.33" y="1005.50" width="4" height="2" fill="#F1F1F1" stroke="#181818" stroke-width="0.50"/><rect x="1870.33" y="1009.50" width="4" height="2" fill="#F1F1F1" stroke="#181818" stroke-width="0.50"/><text x="1738.67" y="1033.50" font-size="14" fill="#000000" xml:space="preserve" style="white-space: pre" font-family="sans-serif">Python 清洗 Worker</text><text x="1738.67" y="1053.50" font-size="14" fill="#000000" xml:space="preserve" style="white-space: pre" font-family="sans-serif">Deferred</text></g><g class="entity" data-qualified-name=".. . Deferred ...OfflineLab" id="ent0025" data-source-line="36"><rect x="1429.60" y="988.50" width="258.79" height="90" rx="2.50" ry="2.50" fill="#F1F1F1" stroke="#181818" stroke-width="0.50"/><rect x="1668.39" y="993.50" width="15" height="10" fill="#F1F1F1" stroke="#181818" stroke-width="0.50"/><rect x="1666.39" y="995.50" width="4" height="2" fill="#F1F1F1" stroke="#181818" stroke-width="0.50"/><rect x="1666.39" y="999.50" width="4" height="2" fill="#F1F1F1" stroke="#181818" stroke-width="0.50"/><text x="1444.60" y="1023.50" font-size="14" fill="#000000" xml:space="preserve" style="white-space: pre" font-family="sans-serif">CR-003 Offline Lab</text><text x="1444.60" y="1043.50" font-size="14" fill="#000000" xml:space="preserve" style="white-space: pre" font-family="sans-serif">49/50 · Embedding shadow</text><text x="1444.60" y="1063.50" font-size="14" fill="#000000" xml:space="preserve" style="white-space: pre" font-family="sans-serif">local student · teacher受许可预算</text></g><g class="link" data-entity-1="ent0002" data-entity-2="ent0004" id="lnk26" data-source-line="39" data-link-type="dependency"><path d="M677,197.63 C677,225.54 677,255.54 677,278.44" fill="none" stroke="#181818" stroke-width="1"/><polygon points="677,283.44 681,274.44 677,278.44 673,274.44 677,283.44" fill="#181818" stroke="#181818" stroke-width="1"/></g><g class="link" data-entity-1="ent0003" data-entity-2="ent0004" id="lnk27" data-source-line="40" data-link-type="dependency"><path d="M913.15,187.87 C856.11,216.77 780.4305,255.1107 729.7305,280.7907" fill="none" stroke="#181818" stroke-width="1"/><polygon points="725.27,283.05 735.11,282.55 729.73,280.79 731.49,275.41 725.27,283.05" fill="#181818" stroke="#181818" stroke-width="1"/></g><g class="link" data-entity-1="ent0004" data-entity-2="ent0007" id="lnk28" data-source-line="41" data-link-type="dependency"><path d="M618.37,311.55 C489.95,317.07 188.86,336.07 108,394.5 C82.53,412.91 70.3155,442.9444 63.7355,466.4944" fill="none" stroke="#000000" stroke-width="1"/><polygon points="62.39,471.31 68.66,463.72 63.74,466.49 60.96,461.57 62.39,471.31" fill="#000000" stroke="#000000" stroke-width="1"/><text x="171.52" y="381.50" font-size="13" fill="#000000" xml:space="preserve" style="white-space: pre" font-family="sans-serif">同步 /v1/auth</text></g><g class="link" data-entity-1="ent0004" data-entity-2="ent0008" id="lnk29" data-source-line="42" data-link-type="dependency"><path d="M618.32,313.03 C563.21,318.42 479.89,332.05 416,366.5 C381.87,384.9 353.855,410.9947 330.275,437.3347" fill="none" stroke="#000000" stroke-width="1"/><polygon points="326.94,441.06 335.92,437.02 330.27,437.33 329.96,431.69 326.94,441.06" fill="#000000" stroke="#000000" stroke-width="1"/><text x="417" y="381.50" font-size="13" fill="#000000" xml:space="preserve" style="white-space: pre" font-family="sans-serif">同步 POST /v1/search</text></g><g class="link" data-entity-1="ent0004" data-entity-2="ent0009" id="lnk30" data-source-line="43" data-link-type="dependency"><path d="M618.46,330.58 C601.08,339.34 583.39,351.13 571,366.5 C546.44,396.98 538.6733,438.0344 535.8933,466.0744" fill="none" stroke="#000000" stroke-width="1"/><polygon points="535.40,471.05 540.27,462.49 535.89,466.07 532.31,461.70 535.40,471.05" fill="#000000" stroke="#000000" stroke-width="1"/><text x="572" y="381.50" font-size="13" fill="#000000" xml:space="preserve" style="white-space: pre" font-family="sans-serif">同步 /v1/events</text></g><g class="link" data-entity-1="ent0004" data-entity-2="ent0010" id="lnk31" data-source-line="44" data-link-type="dependency"><path d="M676.08,333.82 C674.74,369.46 672.4478,430.5335 671.1078,466.1835" fill="none" stroke="#000000" stroke-width="1"/><polygon points="670.92,471.18 675.26,462.34 671.11,466.18 667.26,462.04 670.92,471.18" fill="#000000" stroke="#000000" stroke-width="1"/><text x="675.74" y="381.50" font-size="13" fill="#000000" xml:space="preserve" style="white-space: pre" font-family="sans-serif">同步 /v1/metrics</text></g><g class="link" data-entity-1="ent0004" data-entity-2="ent0011" id="lnk32" data-source-line="45" data-link-type="dependency"><path d="M735.54,331.7 C752.15,340.4 768.96,351.87 781,366.5 C803.32,393.63 812.7443,428.127 817.3943,456.247" fill="none" stroke="#000000" stroke-width="1"/><polygon points="818.21,461.18 820.69,451.65 817.39,456.25 812.80,452.95 818.21,461.18" fill="#000000" stroke="#000000" stroke-width="1"/><text x="794.29" y="381.50" font-size="13" fill="#000000" xml:space="preserve" style="white-space: pre" font-family="sans-serif">同步 /v1/work-orders</text></g><g class="link" data-entity-1="ent0004" data-entity-2="ent0012" id="lnk33" data-source-line="46" data-link-type="dependency"><path d="M735.63,311.88 C790.26,316.46 872.21,329.53 933,366.5 C963.2,384.87 986.066,410.6198 1004.866,436.9698" fill="none" stroke="#000000" stroke-width="1"/><polygon points="1007.77,441.04 1005.80,431.39 1004.87,436.97 999.29,436.04 1007.77,441.04" fill="#000000" stroke="#000000" stroke-width="1"/><text x="959.60" y="381.50" font-size="13" fill="#000000" xml:space="preserve" style="white-space: pre" font-family="sans-serif">同步 /v1/content</text></g><g class="link" data-entity-1="ent0004" data-entity-2="ent0013" id="lnk34" data-source-line="47" data-link-type="dependency"><path d="M735.58,315.4 C812.62,323.75 951.93,340.91 1069,366.5 C1099.78,373.23 1106.6,378.23 1137,386.5 C1151.15,390.35 1156.06,387.61 1169,394.5 C1196.04,408.9 1218.2298,427.6892 1238.1798,447.6992" fill="none" stroke="#000000" stroke-width="1"/><polygon points="1241.71,451.24 1238.19,442.04 1238.18,447.70 1232.52,447.69 1241.71,451.24" fill="#000000" stroke="#000000" stroke-width="1"/><text x="1138" y="381.50" font-size="13" fill="#000000" xml:space="preserve" style="white-space: pre" font-family="sans-serif">同步 /v1/announce</text></g><g class="link" data-entity-1="ent0008" data-entity-2="ent0015" id="lnk35" data-source-line="49" data-link-type="dependency"><path d="M267.32,551.92 C248.61,612.93 220.5653,704.3895 206.8853,749.0195" fill="none" stroke="#000000" stroke-width="1"/><polygon points="205.42,753.80 211.88,746.37 206.89,749.02 204.23,744.02 205.42,753.80" fill="#000000" stroke="#000000" stroke-width="1"/></g><g class="link" data-entity-1="ent0008" data-entity-2="ent0014" id="lnk36" data-source-line="50" data-link-type="dependency"><path d="M172.78,551.78 C160.26,561.11 148.59,571.68 139,583.5 C97.34,634.88 82.1019,708.9695 76.4819,748.6095" fill="none" stroke="#000000" stroke-width="1"/><polygon points="75.78,753.56 81.00,745.21 76.48,748.61 73.08,744.09 75.78,753.56" fill="#000000" stroke="#000000" stroke-width="1"/><text x="140" y="616.50" font-size="13" fill="#000000" xml:space="preserve" style="white-space: pre" font-family="sans-serif">同步读一期 flag</text></g><g class="link" data-entity-1="ent0008" data-entity-2="ent0017" id="lnk37" data-source-line="51" data-link-type="dependency"><path d="M317.89,551.8 C342.49,590.79 372.26,636.92 377,639.5 C401.73,652.99 1364.39,638.26 1391,647.5 C1420.31,657.67 1444.5115,672.1655 1469.1215,691.1555" fill="none" stroke="#000000" stroke-width="1"/><polygon points="1473.08,694.21 1468.40,685.55 1469.12,691.16 1463.51,691.88 1473.08,694.21" fill="#000000" stroke="#000000" stroke-width="1"/><text x="434.39" y="598.50" font-size="13" fill="#000000" xml:space="preserve" style="white-space: pre" font-family="sans-serif">同步受控函数</text><text x="380.55" y="616.50" font-size="13" fill="#000000" xml:space="preserve" style="white-space: pre" font-family="sans-serif">app_runtime不得直读view/底表</text><text x="378" y="634.50" font-size="13" fill="#000000" xml:space="preserve" style="white-space: pre" font-family="sans-serif">同快照范围/审核/质量/hash硬门</text></g><g class="link" data-entity-1="ent0009" data-entity-2="ent0017" id="lnk38" data-source-line="52" data-link-type="dependency"><path d="M543.01,521.79 C556.92,555.32 587.14,614.49 635,639.5 C672.23,658.95 1351.34,633.67 1391,647.5 C1420.29,657.71 1444.4907,672.2265 1469.1007,691.2065" fill="none" stroke="#000000" stroke-width="1"/><polygon points="1473.06,694.26 1468.38,685.60 1469.10,691.21 1463.49,691.93 1473.06,694.26" fill="#000000" stroke="#000000" stroke-width="1"/></g><g class="link" data-entity-1="ent0010" data-entity-2="ent0017" id="lnk39" data-source-line="53" data-link-type="dependency"><path d="M658.5,521.92 C645.43,553.69 629.59,608.75 660,639.5 C674.28,653.94 1371.83,640.81 1391,647.5 C1420.29,657.72 1444.4915,672.2255 1469.1015,691.2155" fill="none" stroke="#000000" stroke-width="1"/><polygon points="1473.06,694.27 1468.38,685.61 1469.10,691.22 1463.49,691.94 1473.06,694.27" fill="#000000" stroke="#000000" stroke-width="1"/><text x="661" y="616.50" font-size="13" fill="#000000" xml:space="preserve" style="white-space: pre" font-family="sans-serif">iteration_tasks 读模型</text></g><g class="link" data-entity-1="ent0011" data-entity-2="ent0018" id="lnk40" data-source-line="54" data-link-type="dependency"><path d="M852.34,531.79 C868.64,547.87 890.07,565.62 913,575.5 C944.19,588.94 960.56,564.94 989,583.5 C1013.01,599.17 996.29,624.97 1021,639.5 C1053.76,658.77 1669.99,632.72 1705,647.5 C1744.92,664.35 1775.922,716.9897 1799.162,746.7397" fill="none" stroke="#000000" stroke-width="1"/><polygon points="1802.24,750.68 1799.85,741.13 1799.16,746.74 1793.55,746.05 1802.24,750.68" fill="#000000" stroke="#000000" stroke-width="1"/><text x="1022" y="616.50" font-size="13" fill="#000000" xml:space="preserve" style="white-space: pre" font-family="sans-serif">同步先持久批准文件</text></g><g class="link" data-entity-1="ent0011" data-entity-2="ent0017" id="lnk41" data-source-line="55" data-link-type="dependency"><path d="M809.32,531.8 C799.82,564.17 792.65,611.76 820,639.5 C831.14,650.79 1376.03,642.25 1391,647.5 C1420.28,657.76 1444.4715,672.2855 1469.0815,691.2755" fill="none" stroke="#000000" stroke-width="1"/><polygon points="1473.04,694.33 1468.36,685.67 1469.08,691.28 1463.47,692.00 1473.04,694.33" fill="#000000" stroke="#000000" stroke-width="1"/><text x="821" y="616.50" font-size="13" fill="#000000" xml:space="preserve" style="white-space: pre" font-family="sans-serif">work_order batch + outbox</text></g><g class="link" data-entity-1="ent0012" data-entity-2="ent0018" id="lnk42" data-source-line="56" data-link-type="dependency"><path d="M1116.17,551.88 C1132.84,561.44 1150.94,570.05 1169,575.5 C1213.5,588.91 1332.9,572.27 1378,583.5 C1433.55,597.33 1438.44,625.68 1494,639.5 C1539.53,650.83 1662.02,628.68 1705,647.5 C1744.55,664.81 1775.4443,717.2336 1798.7343,746.7736" fill="none" stroke="#000000" stroke-width="1"/><polygon points="1801.83,750.70 1799.40,741.16 1798.73,746.77 1793.12,746.11 1801.83,750.70" fill="#000000" stroke="#000000" stroke-width="1"/><text x="1520.30" y="607.50" font-size="13" fill="#000000" xml:space="preserve" style="white-space: pre" font-family="sans-serif">同步先持久</text><text x="1495" y="625.50" font-size="13" fill="#000000" xml:space="preserve" style="white-space: pre" font-family="sans-serif">校验 key/hash/size</text></g><g class="link" data-entity-1="ent0012" data-entity-2="ent0017" id="lnk43" data-source-line="57" data-link-type="dependency"><path d="M1115.19,551.88 C1126.75,561.81 1138.12,572.51 1148,583.5 C1167.79,605.5 1158.31,624.82 1184,639.5 C1203.99,650.92 1369.37,639.62 1391,647.5 C1419.8,658 1443.6238,672.3655 1468.0238,691.0955" fill="none" stroke="#000000" stroke-width="1"/><polygon points="1471.99,694.14 1467.29,685.49 1468.02,691.10 1462.42,691.83 1471.99,694.14" fill="#000000" stroke="#000000" stroke-width="1"/><text x="1211.96" y="598.50" font-size="13" fill="#000000" xml:space="preserve" style="white-space: pre" font-family="sans-serif">batch + outbox 同事务</text><text x="1185" y="616.50" font-size="13" fill="#000000" xml:space="preserve" style="white-space: pre" font-family="sans-serif">commit 后才 202；publish 事务</text><text x="1186.87" y="634.50" font-size="13" fill="#000000" xml:space="preserve" style="white-space: pre" font-family="sans-serif">来源/租约denial与标准审计分流</text></g><g class="link" data-entity-1="ent0013" data-entity-2="ent0017" id="lnk44" data-source-line="58" data-link-type="dependency"><path d="M1375.67,505.11 C1430.62,514.72 1496.41,536.12 1535,583.5 C1559.82,613.97 1567.0581,651.5405 1567.5981,689.0805" fill="none" stroke="#000000" stroke-width="1"/><polygon points="1567.67,694.08 1571.54,685.02 1567.60,689.08 1563.54,685.14 1567.67,694.08" fill="#000000" stroke="#000000" stroke-width="1"/></g><g class="link" data-entity-1="ent0008" data-entity-2="ent0023" id="lnk45" data-source-line="60" data-link-type="dependency"><path d="M294.81,551.9 C303.09,581.13 317.27,615.89 341,639.5 C616.28,913.35 1100.6965,1001.4099 1270.2465,1024.6899" fill="none" stroke="#666666" stroke-width="1" stroke-dasharray="7,7"/><polygon points="1275.20,1025.37 1266.83,1020.18 1270.25,1024.69 1265.74,1028.11 1275.20,1025.37" fill="#666666" stroke="#666666" stroke-width="1"/><text x="734.66" y="784" font-size="13" fill="#000000" xml:space="preserve" style="white-space: pre" font-family="sans-serif">异步 &lt;=400ms 降级</text></g><g class="link" data-entity-1="ent0017" data-entity-2="ent0020" id="lnk46" data-source-line="61" data-link-type="dependency"><path d="M1570.77,694.42 C1586.33,588.63 1614,417.34 1633,394.5 C1664.32,356.87 1709.6771,337.102 1753.8971,325.372" fill="none" stroke="#666666" stroke-width="1" stroke-dasharray="7,7"/><polygon points="1758.73,324.09 1749.01,322.53 1753.90,325.37 1751.06,330.26 1758.73,324.09" fill="#666666" stroke="#666666" stroke-width="1"/><text x="1634" y="501.50" font-size="13" fill="#000000" xml:space="preserve" style="white-space: pre" font-family="sans-serif">同库持久 job</text></g><g class="link" data-entity-1="ent0020" data-entity-2="ent0021" id="lnk47" data-source-line="62" data-link-type="dependency"><path d="M1854.05,333.82 C1858.57,360.9 1865.178,400.598 1871.098,436.118" fill="none" stroke="#666666" stroke-width="1" stroke-dasharray="7,7"/><polygon points="1871.92,441.05 1874.39,431.51 1871.10,436.12 1866.49,432.83 1871.92,441.05" fill="#666666" stroke="#666666" stroke-width="1"/><text x="1863.72" y="381.50" font-size="13" fill="#000000" xml:space="preserve" style="white-space: pre" font-family="sans-serif">claim / heartbeat</text></g><g class="link" data-entity-1="ent0021" data-entity-2="ent0018" id="lnk48" data-source-line="63" data-link-type="dependency"><path d="M1873.93,551.87 C1870.34,578.35 1865.74,610.63 1861,639.5 C1856.06,669.56 1850.7318,719.2314 1845.5818,745.7914" fill="none" stroke="#000000" stroke-width="1"/><polygon points="1844.63,750.70 1850.27,742.63 1845.58,745.79 1842.42,741.10 1844.63,750.70" fill="#000000" stroke="#000000" stroke-width="1"/><text x="1870.32" y="616.50" font-size="13" fill="#000000" xml:space="preserve" style="white-space: pre" font-family="sans-serif">按 key 重读原文</text></g><g class="link" data-entity-1="ent0021" data-entity-2="ent0017" id="lnk49" data-source-line="64" data-link-type="dependency"><path d="M1750.68,551.91 C1728.3,560.36 1705.13,568.58 1683,575.5 C1668.18,580.13 1661.03,573.69 1649,583.5 C1639.27,591.44 1616.7397,640.4943 1595.7597,689.4443" fill="none" stroke="#000000" stroke-width="1"/><polygon points="1593.79,694.04 1601.01,687.34 1595.76,689.44 1593.66,684.19 1593.79,694.04" fill="#000000" stroke="#000000" stroke-width="1"/><text x="1664.72" y="598.50" font-size="13" fill="#000000" xml:space="preserve" style="white-space: pre" font-family="sans-serif">lease_version fenced finalize</text><text x="1650" y="616.50" font-size="13" fill="#000000" xml:space="preserve" style="white-space: pre" font-family="sans-serif">normalized row不接审核/质量结论</text><text x="1663.89" y="634.50" font-size="13" fill="#000000" xml:space="preserve" style="white-space: pre" font-family="sans-serif">审核池另写decision/evidence</text></g><g class="link" data-entity-1="ent0021" data-entity-2="ent0024" id="lnk50" data-source-line="65" data-link-type="dependency"><path d="M1952.35,551.88 C1960.72,561.46 1968.04,572.07 1973,583.5 C1997.92,640.91 2059.12,677.64 1963,887.5 C1941.75,933.9 1902.1734,969.6125 1866.6034,995.3025" fill="none" stroke="#666666" stroke-width="1" stroke-dasharray="7,7"/><polygon points="1862.55,998.23 1872.19,996.20 1866.60,995.30 1867.50,989.72 1862.55,998.23" fill="#666666" stroke="#666666" stroke-width="1"/><text x="2016.23" y="784" font-size="13" fill="#000000" xml:space="preserve" style="white-space: pre" font-family="sans-serif">二期才可扩展</text></g><g class="link" data-entity-1="ent0013" data-entity-2="ent0005" id="lnk51" data-source-line="66" data-link-type="dependency"><path d="M1280.48,451.01 C1279.71,385.17 1278.3389,267.5297 1277.5689,202.1597" fill="none" stroke="#666666" stroke-width="1" stroke-dasharray="7,7"/><polygon points="1277.51,197.16 1273.62,206.21 1277.57,202.16 1281.62,206.11 1277.51,197.16" fill="#666666" stroke="#666666" stroke-width="1"/><text x="1291.15" y="295.50" font-size="13" fill="#000000" xml:space="preserve" style="white-space: pre" font-family="sans-serif">完整snapshot经最小mapper</text><text x="1280.38" y="313.50" font-size="13" fill="#000000" xml:space="preserve" style="white-space: pre" font-family="sans-serif">客户端按effective [from,to)过滤</text><text x="1321.81" y="331.50" font-size="13" fill="#000000" xml:space="preserve" style="white-space: pre" font-family="sans-serif">异步重建本地索引</text></g><g class="link" data-entity-1="ent0017" data-entity-2="ent0025" id="lnk52" data-source-line="67" data-link-type="dependency"><path d="M1559,863.73 C1559,905.36 1559,948.97 1559,983.31" fill="none" stroke="#666666" stroke-width="1" stroke-dasharray="7,7"/><polygon points="1559,988.31 1563,979.31 1559,983.31 1555,979.31 1559,988.31" fill="#666666" stroke="#666666" stroke-width="1"/><text x="1563.25" y="910.50" font-size="13" fill="#000000" xml:space="preserve" style="white-space: pre" font-family="sans-serif">仅获批候选引用</text><text x="1560" y="928.50" font-size="13" fill="#000000" xml:space="preserve" style="white-space: pre" font-family="sans-serif">无自动训练/导出</text></g><g class="legend" data-source-line="69"><rect x="1632.11" y="1114.50" width="459.12" height="390" rx="7.50" ry="7.50" fill="#DDDDDD" stroke="#000000" stroke-width="1"/><text x="1637.11" y="1134.50" font-size="14" fill="#000000" xml:space="preserve" style="white-space: pre" font-family="sans-serif">实线同步 / 虚线异步</text><text x="1637.11" y="1154.50" font-size="14" fill="#000000" xml:space="preserve" style="white-space: pre" font-family="sans-serif">search events content workorders = 红线</text><text x="1637.11" y="1174.50" font-size="14" fill="#000000" xml:space="preserve" style="white-space: pre" font-family="sans-serif">自动事实复用 events；不是聊天记录</text><text x="1637.11" y="1194.50" font-size="14" fill="#000000" xml:space="preserve" style="white-space: pre" font-family="sans-serif">修改/发送/正确性仅 Pilot 离线抽样</text><text x="1637.11" y="1214.50" font-size="14" fill="#000000" xml:space="preserve" style="white-space: pre" font-family="sans-serif">DEC-042: 稳定Question + 显式scope/taxonomy/risk</text><text x="1637.11" y="1234.50" font-size="14" fill="#000000" xml:space="preserve" style="white-space: pre" font-family="sans-serif">Question hash含promoted_by_role；固定ASCII键+C排序，非通用JCS</text><text x="1637.11" y="1254.50" font-size="14" fill="#000000" xml:space="preserve" style="white-space: pre" font-family="sans-serif">quality绑定population_manifest_hash；同计数换行也失败</text><text x="1637.11" y="1274.50" font-size="14" fill="#000000" xml:space="preserve" style="white-space: pre" font-family="sans-serif">semantic asset先退役留墓碑，再允许删来源query</text><text x="1637.11" y="1294.50" font-size="14" fill="#000000" xml:space="preserve" style="white-space: pre" font-family="sans-serif">snapshot完整不可变；客户端[effective_from,effective_to)过滤</text><text x="1637.11" y="1314.50" font-size="14" fill="#000000" xml:space="preserve" style="white-space: pre" font-family="sans-serif">public mapper封闭最小，禁止内部HMAC/EVD/query/locator外泄</text><text x="1637.11" y="1334.50" font-size="14" fill="#000000" xml:space="preserve" style="white-space: pre" font-family="sans-serif">仅来源/租约走denial audit；内容/质量/hash走标准审计</text><text x="1637.11" y="1354.50" font-size="14" fill="#000000" xml:space="preserve" style="white-space: pre" font-family="sans-serif">high/冲突双审；quality quarantine+抽样阈值</text><text x="1637.11" y="1374.50" font-size="14" fill="#000000" xml:space="preserve" style="white-space: pre" font-family="sans-serif">clean&lt;=500全审；501..5000抽10%(100..300)；&gt;2%扩30%；&gt;5%阻断</text><text x="1637.11" y="1394.50" font-size="14" fill="#000000" xml:space="preserve" style="white-space: pre" font-family="sans-serif">placeholder值/渲染正文零落库；事件只绑模板四元组</text><text x="1637.11" y="1414.50" font-size="14" fill="#000000" xml:space="preserve" style="white-space: pre" font-family="sans-serif">schema v1.12 / OpenAPI 1.11.0 静态合同已锁</text><text x="1637.11" y="1434.50" font-size="14" fill="#000000" xml:space="preserve" style="white-space: pre" font-family="sans-serif">迁移/runtime/动态EVD未实现；当前真PG NOT_CERTIFIED</text><text x="1637.11" y="1454.50" font-size="14" fill="#000000" xml:space="preserve" style="white-space: pre" font-family="sans-serif">CR-003: DeepSeek teacher另批；GLM distill Ban</text><text x="1637.11" y="1474.50" font-size="14" fill="#000000" xml:space="preserve" style="white-space: pre" font-family="sans-serif">import 原文 + outbox + TS worker = 一期 Must</text><text x="1637.11" y="1494.50" font-size="14" fill="#000000" xml:space="preserve" style="white-space: pre" font-family="sans-serif">work_order_* 与 iteration_task* 分表 / 分 API / 分权限</text></g></g></svg>
