<svg class="diagram-svg" xmlns="http://www.w3.org/2000/svg" version="1.1" viewBox="0 0 4001 1561" width="4001" height="1561"><defs/><g><g class="title" data-source-line="9"><text x="1894.78" y="26" font-size="14" fill="#000000" xml:space="preserve" style="white-space: pre" font-weight="bold" font-family="'PingFang SC, Microsoft YaHei, sans-serif'">瀑布全生命周期（大厂默认关卡）</text><text x="1789.78" y="46" font-size="14" fill="#000000" xml:space="preserve" style="white-space: pre" font-weight="bold" font-family="'PingFang SC, Microsoft YaHei, sans-serif'">目的：统一「现在走到哪、谁负责、产出什么」——不是只有写代码</text></g><rect x="10" y="69.50" width="3974.56" height="25" fill="#00000000" stroke="#00000000" stroke-width="1"/><circle cx="89.01" cy="109.50" r="10" fill="#222222" stroke="#222222" stroke-width="1"/><path d="M182.01,143.50 L182.01,162.50 L162.01,166.50 L182.01,170.50 L182.01,189.50 A0,0 0 0 0 182.01,189.50 L307.01,189.50 A0,0 0 0 0 307.01,189.50 L307.01,153.50 L297.01,143.50 L182.01,143.50 A0,0 0 0 0 182.01,143.50" fill="#FEFFDD" stroke="#181818" stroke-width="0.50"/><path d="M297.01,143.50 L297.01,153.50 L307.01,153.50 L297.01,143.50" fill="#FEFFDD" stroke="#181818" stroke-width="0.50"/><text x="188.01" y="163.50" font-size="13" fill="#000000" xml:space="preserve" style="white-space: pre" font-weight="bold" font-family="'PingFang SC, Microsoft YaHei, sans-serif'">本项目状态：通过</text><text x="188.01" y="181.50" font-size="13" fill="#000000" xml:space="preserve" style="white-space: pre" font-family="'PingFang SC, Microsoft YaHei, sans-serif'">31 契约 · 25 PRD</text><rect x="16" y="139.50" width="146.01" height="54" rx="12.50" ry="12.50" fill="#FFFFFF" stroke="#999999" stroke-width="0.50"/><text x="26" y="163.50" font-size="12" fill="#000000" xml:space="preserve" style="white-space: pre" font-family="'PingFang SC, Microsoft YaHei, sans-serif'">需求分析</text><text x="26" y="180.50" font-size="12" fill="#000000" xml:space="preserve" style="white-space: pre" font-family="'PingFang SC, Microsoft YaHei, sans-serif'">产出：PRD / 契约 / 范围</text><line x1="10" y1="69.50" x2="10" y2="1455.50" stroke="#000000" stroke-width="1.50"/><path d="M529.04,203.50 L529.04,429.50 L509.04,433.50 L529.04,437.50 L529.04,663.50 A0,0 0 0 0 529.04,663.50 L1208.54,663.50 A0,0 0 0 0 1208.54,663.50 L1208.54,213.50 L1198.54,203.50 L529.04,203.50 A0,0 0 0 0 529.04,203.50" fill="#FEFFDD" stroke="#181818" stroke-width="0.50"/><path d="M1198.54,203.50 L1198.54,213.50 L1208.54,213.50 L1198.54,203.50" fill="#FEFFDD" stroke="#181818" stroke-width="0.50"/><text x="535.04" y="223.50" font-size="13" fill="#000000" xml:space="preserve" style="white-space: pre" font-weight="bold" font-family="'PingFang SC, Microsoft YaHei, sans-serif'">本项目：通过 · PASS-WITH-CONDITIONS</text><text x="782.92" y="223.50" font-size="13" fill="#000000" xml:space="preserve" style="white-space: pre" font-family="'PingFang SC, Microsoft YaHei, sans-serif'">*</text><text x="535.04" y="241.50" font-size="13" fill="#000000" xml:space="preserve" style="white-space: pre" font-family="'PingFang SC, Microsoft YaHei, sans-serif'">静态设计包已冻结</text><text x="535.04" y="259.50" font-size="13" fill="#000000" xml:space="preserve" style="white-space: pre" font-family="'PingFang SC, Microsoft YaHei, sans-serif'">CR-002 自动事实增量已对齐</text><text x="535.04" y="277.50" font-size="13" fill="#000000" xml:space="preserve" style="white-space: pre" font-family="'PingFang SC, Microsoft YaHei, sans-serif'">CR-003 49/50 仅训练预埋</text><text x="535.04" y="295.50" font-size="13" fill="#000000" xml:space="preserve" style="white-space: pre" font-family="'PingFang SC, Microsoft YaHei, sans-serif'">CR-004 权威来源硬门静态合同已对齐</text><text x="535.04" y="313.50" font-size="13" fill="#000000" xml:space="preserve" style="white-space: pre" font-family="'PingFang SC, Microsoft YaHei, sans-serif'">DEC-042 稳定Question/scope/taxonomy/risk/placeholder/quality/hash</text><text x="535.04" y="331.50" font-size="13" fill="#000000" xml:space="preserve" style="white-space: pre" font-family="'PingFang SC, Microsoft YaHei, sans-serif'">Question hash含promoted_by_role；固定ASCII键+C排序（非通用JCS）</text><text x="535.04" y="349.50" font-size="13" fill="#000000" xml:space="preserve" style="white-space: pre" font-family="'PingFang SC, Microsoft YaHei, sans-serif'">quality绑定population_manifest_hash，防同计数换行</text><text x="535.04" y="367.50" font-size="13" fill="#000000" xml:space="preserve" style="white-space: pre" font-family="'PingFang SC, Microsoft YaHei, sans-serif'">semantic先退役留墓碑再删query；谱系不断链</text><text x="535.04" y="385.50" font-size="13" fill="#000000" xml:space="preserve" style="white-space: pre" font-family="'PingFang SC, Microsoft YaHei, sans-serif'">完整snapshot+客户端[effective_from,effective_to)过滤</text><text x="535.04" y="403.50" font-size="13" fill="#000000" xml:space="preserve" style="white-space: pre" font-family="'PingFang SC, Microsoft YaHei, sans-serif'">封闭最小public mapper；来源/租约denial与标准审计分流</text><text x="535.04" y="421.50" font-size="13" fill="#000000" xml:space="preserve" style="white-space: pre" font-family="'PingFang SC, Microsoft YaHei, sans-serif'">人读架构·实现·测试设计已收口</text><text x="535.04" y="439.50" font-size="13" fill="#000000" xml:space="preserve" style="white-space: pre" font-family="'PingFang SC, Microsoft YaHei, sans-serif'">25/26/31/37/39/33/40/41/43/46/47/48/49/50</text><text x="535.04" y="457.50" font-size="13" fill="#000000" xml:space="preserve" style="white-space: pre" font-family="'PingFang SC, Microsoft YaHei, sans-serif'">2026-08-10 Codex交叉检查已冻结到90-评审（非规范证据）</text><text x="535.04" y="475.50" font-size="13" fill="#000000" xml:space="preserve" style="white-space: pre" font-family="'PingFang SC, Microsoft YaHei, sans-serif'">当前 schema v1.12 reference DDL 本地 PG15 预检：PASS-WITH-LIMITATION</text><text x="535.04" y="493.50" font-size="13" fill="#000000" xml:space="preserve" style="white-space: pre" font-family="'PingFang SC, Microsoft YaHei, sans-serif'">旧 c1e74c EVD：仅历史，不外推当前 schema</text><text x="535.04" y="511.50" font-size="13" fill="#000000" xml:space="preserve" style="white-space: pre" font-family="'PingFang SC, Microsoft YaHei, sans-serif'">DEC-042 schema v1.12 / OpenAPI 1.11.0 静态合同：LOCKED</text><text x="535.04" y="529.50" font-size="13" fill="#000000" xml:space="preserve" style="white-space: pre" font-family="'PingFang SC, Microsoft YaHei, sans-serif'">DEV-M0 W2类型/validator + W3 API/config /health：COMPLETE</text><text x="535.04" y="547.50" font-size="13" fill="#000000" xml:space="preserve" style="white-space: pre" font-family="'PingFang SC, Microsoft YaHei, sans-serif'">DEV-M0 W4 migration/PG15 + W5 pool/ready + W6 CI：COMPLETE</text><text x="535.04" y="565.50" font-size="13" fill="#000000" xml:space="preserve" style="white-space: pre" font-family="'PingFang SC, Microsoft YaHei, sans-serif'">DEV-M1 mock auth/policy + SearchBackend + Search/Events：COMPLETE</text><text x="535.04" y="583.50" font-size="13" fill="#000000" xml:space="preserve" style="white-space: pre" font-family="'PingFang SC, Microsoft YaHei, sans-serif'">DEV-M1 50条纯合成runner：50/50 · NOT_SIGNED / NOT_EVALUATED</text><text x="535.04" y="601.50" font-size="13" fill="#000000" xml:space="preserve" style="white-space: pre" font-family="'PingFang SC, Microsoft YaHei, sans-serif'">DEC-SEARCH-01：PASS-WITH-CONDITIONS；comparison v2已合并</text><text x="535.04" y="619.50" font-size="13" fill="#000000" xml:space="preserve" style="white-space: pre" font-family="'PingFang SC, Microsoft YaHei, sans-serif'">G1a T4：READY；T5：ATTEMPTED/BLOCKED；DEV-M2：NO-GO</text><text x="535.04" y="637.50" font-size="13" fill="#000000" xml:space="preserve" style="white-space: pre" font-family="'PingFang SC, Microsoft YaHei, sans-serif'">desktop接库/真实来源/动态EVD：NOT_IMPLEMENTED；managed/backup/concurrency/production：NOT_CERTIFIED</text><circle cx="540.54" cy="651" r="2.50" fill="#000000" stroke="#000000" stroke-width="0"/><text x="547.04" y="655.50" font-size="13" fill="#000000" xml:space="preserve" style="white-space: pre" font-family="'PingFang SC, Microsoft YaHei, sans-serif'">升级/并发/生产/真机仍未认证；本地预检不替代这些证据</text><rect x="318.01" y="406.50" width="191.03" height="54" rx="12.50" ry="12.50" fill="#FFFFFF" stroke="#999999" stroke-width="0.50"/><text x="328.01" y="430.50" font-size="12" fill="#000000" xml:space="preserve" style="white-space: pre" font-family="'PingFang SC, Microsoft YaHei, sans-serif'">架构设计</text><text x="328.01" y="447.50" font-size="12" fill="#000000" xml:space="preserve" style="white-space: pre" font-family="'PingFang SC, Microsoft YaHei, sans-serif'">产出：SSOT / ADR / C4 图 / NFR</text><line x1="312.01" y1="69.50" x2="312.01" y2="1455.50" stroke="#000000" stroke-width="1.50"/><path d="M1527.54,673.50 L1527.54,809.50 L1507.54,813.50 L1527.54,817.50 L1527.54,953.50 A0,0 0 0 0 1527.54,953.50 L1982.23,953.50 A0,0 0 0 0 1982.23,953.50 L1982.23,683.50 L1972.23,673.50 L1527.54,673.50 A0,0 0 0 0 1527.54,673.50" fill="#FEFFDD" stroke="#181818" stroke-width="0.50"/><path d="M1972.23,673.50 L1972.23,683.50 L1982.23,683.50 L1972.23,673.50" fill="#FEFFDD" stroke="#181818" stroke-width="0.50"/><text x="1533.54" y="693.50" font-size="13" fill="#000000" xml:space="preserve" style="white-space: pre" font-weight="bold" font-family="'PingFang SC, Microsoft YaHei, sans-serif'">本项目状态：通过 · 文档包 Ready</text><text x="1533.54" y="711.50" font-size="13" fill="#000000" xml:space="preserve" style="white-space: pre" font-family="'PingFang SC, Microsoft YaHei, sans-serif'">2026-08-10 Codex冻结评审（90） · 46 开工包 · CR-002/003/004/DEC-042 增量</text><text x="1533.54" y="729.50" font-size="13" fill="#000000" xml:space="preserve" style="white-space: pre" font-family="'PingFang SC, Microsoft YaHei, sans-serif'">DEC-042 已拆 DEV-M0/M1 任务与退出负例</text><text x="1533.54" y="747.50" font-size="13" fill="#000000" xml:space="preserve" style="white-space: pre" font-family="'PingFang SC, Microsoft YaHei, sans-serif'">postfix约束已拆实现与负例；当前仍仅文档包</text><text x="1533.54" y="765.50" font-size="13" fill="#000000" xml:space="preserve" style="white-space: pre" font-family="'PingFang SC, Microsoft YaHei, sans-serif'">placeholder内存渲染/二次确认/零持久纳入 DEV-M3</text><text x="1533.54" y="783.50" font-size="13" fill="#000000" xml:space="preserve" style="white-space: pre" font-weight="bold" font-family="'PingFang SC, Microsoft YaHei, sans-serif'">组织授权门：G0 / Ddev 已 Pass（不计入八关）</text><text x="1533.54" y="801.50" font-size="13" fill="#000000" xml:space="preserve" style="white-space: pre" font-family="'PingFang SC, Microsoft YaHei, sans-serif'">EVD-G0-SIGN-20260831 · EVD-DDEV-AUTH-20260831</text><text x="1533.54" y="819.50" font-size="13" fill="#000000" xml:space="preserve" style="white-space: pre" font-family="'PingFang SC, Microsoft YaHei, sans-serif'">初始即时只放行 DEV-M0；后续里程碑独立授权</text><text x="1533.54" y="837.50" font-size="13" fill="#000000" xml:space="preserve" style="white-space: pre" font-family="'PingFang SC, Microsoft YaHei, sans-serif'">外部责任包 14/14 · Scope 15/15</text><text x="1533.54" y="855.50" font-size="13" fill="#000000" xml:space="preserve" style="white-space: pre" font-family="'PingFang SC, Microsoft YaHei, sans-serif'">产品仓 DEV-M0 与 DEV-M1 COMPLETE</text><text x="1533.54" y="873.50" font-size="13" fill="#000000" xml:space="preserve" style="white-space: pre" font-family="'PingFang SC, Microsoft YaHei, sans-serif'">DEC-SEARCH-01：PASS-WITH-CONDITIONS</text><text x="1533.54" y="891.50" font-size="13" fill="#000000" xml:space="preserve" style="white-space: pre" font-family="'PingFang SC, Microsoft YaHei, sans-serif'">G1A-E0 T1～T3 + comparison v2：COMPLETE · MERGED · 44/44</text><text x="1533.54" y="909.50" font-size="13" fill="#000000" xml:space="preserve" style="white-space: pre" font-family="'PingFang SC, Microsoft YaHei, sans-serif'">T4输入包：READY · STATICALLY_VERIFIED</text><text x="1533.54" y="927.50" font-size="13" fill="#000000" xml:space="preserve" style="white-space: pre" font-family="'PingFang SC, Microsoft YaHei, sans-serif'">下一步：T5重试dry-run与独立重试授权</text><text x="1533.54" y="945.50" font-size="13" fill="#000000" xml:space="preserve" style="white-space: pre" font-family="'PingFang SC, Microsoft YaHei, sans-serif'">真实G1a：NOT_EVALUATED；DEV-M2：NO-GO</text><rect x="1219.54" y="786.50" width="288.00" height="54" rx="12.50" ry="12.50" fill="#FFFFFF" stroke="#999999" stroke-width="0.50"/><text x="1229.54" y="810.50" font-size="12" fill="#000000" xml:space="preserve" style="white-space: pre" font-family="'PingFang SC, Microsoft YaHei, sans-serif'">实现设计</text><text x="1229.54" y="827.50" font-size="12" fill="#000000" xml:space="preserve" style="white-space: pre" font-family="'PingFang SC, Microsoft YaHei, sans-serif'">产出：详细设计 / 接口明细 / 表迁移计划 / 任务拆解</text><line x1="1213.54" y1="69.50" x2="1213.54" y2="1455.50" stroke="#000000" stroke-width="1.50"/><path d="M2166.56,963.50 L2166.56,1036.50 L2146.56,1040.50 L2166.56,1044.50 L2166.56,1117.50 A0,0 0 0 0 2166.56,1117.50 L2516.86,1117.50 A0,0 0 0 0 2516.86,1117.50 L2516.86,973.50 L2506.86,963.50 L2166.56,963.50 A0,0 0 0 0 2166.56,963.50" fill="#FEFFDD" stroke="#181818" stroke-width="0.50"/><path d="M2506.86,963.50 L2506.86,973.50 L2516.86,973.50 L2506.86,963.50" fill="#FEFFDD" stroke="#181818" stroke-width="0.50"/><text x="2172.56" y="983.50" font-size="13" fill="#000000" xml:space="preserve" style="white-space: pre" font-weight="bold" font-family="'PingFang SC, Microsoft YaHei, sans-serif'">DEV-M0 与 DEV-M1 COMPLETE</text><text x="2172.56" y="1001.50" font-size="13" fill="#000000" xml:space="preserve" style="white-space: pre" font-family="'PingFang SC, Microsoft YaHei, sans-serif'">DEV-M0 workspace/合同/migration/runtime/CI 已完成</text><text x="2172.56" y="1019.50" font-size="13" fill="#000000" xml:space="preserve" style="white-space: pre" font-family="'PingFang SC, Microsoft YaHei, sans-serif'">DEV-M1 mock auth/policy + 受控SearchBackend已完成</text><text x="2172.56" y="1037.50" font-size="13" fill="#000000" xml:space="preserve" style="white-space: pre" font-family="'PingFang SC, Microsoft YaHei, sans-serif'">Search + Events事务与合成runner已完成</text><text x="2172.56" y="1055.50" font-size="13" fill="#000000" xml:space="preserve" style="white-space: pre" font-family="'PingFang SC, Microsoft YaHei, sans-serif'">runner 50/50，但仍为NOT_SIGNED / NOT_EVALUATED</text><text x="2172.56" y="1073.50" font-size="13" fill="#000000" xml:space="preserve" style="white-space: pre" font-family="'PingFang SC, Microsoft YaHei, sans-serif'">G1A-E0 T1～T3与comparison v2已合并；T4输入包READY</text><text x="2172.56" y="1091.50" font-size="13" fill="#000000" xml:space="preserve" style="white-space: pre" font-family="'PingFang SC, Microsoft YaHei, sans-serif'">T5首次尝试在评测前阻塞</text><text x="2172.56" y="1109.50" font-size="13" fill="#000000" xml:space="preserve" style="white-space: pre" font-family="'PingFang SC, Microsoft YaHei, sans-serif'">desktop、真实来源、DEV-M2与生产仍未放行</text><rect x="1993.23" y="1013.50" width="153.34" height="54" rx="12.50" ry="12.50" fill="#FFFFFF" stroke="#999999" stroke-width="0.50"/><text x="2003.23" y="1037.50" font-size="12" fill="#000000" xml:space="preserve" style="white-space: pre" font-family="'PingFang SC, Microsoft YaHei, sans-serif'">代码开发</text><text x="2003.23" y="1054.50" font-size="12" fill="#000000" xml:space="preserve" style="white-space: pre" font-family="'PingFang SC, Microsoft YaHei, sans-serif'">产出：API · 壳 · 迁移脚本</text><line x1="1987.23" y1="69.50" x2="1987.23" y2="1455.50" stroke="#000000" stroke-width="1.50"/><path d="M2694.52,1141.50 L2694.52,1160.50 L2674.52,1164.50 L2694.52,1168.50 L2694.52,1187.50 A0,0 0 0 0 2694.52,1187.50 L3101.97,1187.50 A0,0 0 0 0 3101.97,1187.50 L3101.97,1151.50 L3091.97,1141.50 L2694.52,1141.50 A0,0 0 0 0 2694.52,1141.50" fill="#FEFFDD" stroke="#181818" stroke-width="0.50"/><path d="M3091.97,1141.50 L3091.97,1151.50 L3101.97,1151.50 L3091.97,1141.50" fill="#FEFFDD" stroke="#181818" stroke-width="0.50"/><text x="2700.52" y="1161.50" font-size="13" fill="#000000" xml:space="preserve" style="white-space: pre" font-family="'PingFang SC, Microsoft YaHei, sans-serif'">DEV-M1完整pnpm check、PG15集成与Windows feasibility smoke已绿</text><text x="2700.52" y="1179.50" font-size="13" fill="#000000" xml:space="preserve" style="white-space: pre" font-family="'PingFang SC, Microsoft YaHei, sans-serif'">技术第5关仍待独立进关</text><rect x="2527.86" y="1137.50" width="146.66" height="54" rx="12.50" ry="12.50" fill="#FFFFFF" stroke="#999999" stroke-width="0.50"/><text x="2537.86" y="1161.50" font-size="12" fill="#000000" xml:space="preserve" style="white-space: pre" font-family="'PingFang SC, Microsoft YaHei, sans-serif'">单元测试</text><text x="2537.86" y="1178.50" font-size="12" fill="#000000" xml:space="preserve" style="white-space: pre" font-family="'PingFang SC, Microsoft YaHei, sans-serif'">产出：INV / 端口单测绿</text><line x1="2521.86" y1="69.50" x2="2521.86" y2="1455.50" stroke="#000000" stroke-width="1.50"/><path d="M3327.64,1215.50 L3327.64,1234.50 L3307.64,1238.50 L3327.64,1242.50 L3327.64,1261.50 A0,0 0 0 0 3327.64,1261.50 L3478.64,1261.50 A0,0 0 0 0 3478.64,1261.50 L3478.64,1225.50 L3468.64,1215.50 L3327.64,1215.50 A0,0 0 0 0 3327.64,1215.50" fill="#FEFFDD" stroke="#181818" stroke-width="0.50"/><path d="M3468.64,1215.50 L3468.64,1225.50 L3478.64,1225.50 L3468.64,1215.50" fill="#FEFFDD" stroke="#181818" stroke-width="0.50"/><text x="3333.64" y="1235.50" font-size="13" fill="#000000" xml:space="preserve" style="white-space: pre" font-family="'PingFang SC, Microsoft YaHei, sans-serif'">未开始</text><text x="3333.64" y="1253.50" font-size="13" fill="#000000" xml:space="preserve" style="white-space: pre" font-family="'PingFang SC, Microsoft YaHei, sans-serif'">压测后才可宣称高并发</text><rect x="3112.97" y="1211.50" width="194.67" height="54" rx="12.50" ry="12.50" fill="#FFFFFF" stroke="#999999" stroke-width="0.50"/><text x="3122.97" y="1235.50" font-size="12" fill="#000000" xml:space="preserve" style="white-space: pre" font-family="'PingFang SC, Microsoft YaHei, sans-serif'">系统测试</text><text x="3122.97" y="1252.50" font-size="12" fill="#000000" xml:space="preserve" style="white-space: pre" font-family="'PingFang SC, Microsoft YaHei, sans-serif'">产出：集成 / 压测 / 安全测试报告</text><line x1="3106.97" y1="69.50" x2="3106.97" y2="1455.50" stroke="#000000" stroke-width="1.50"/><path d="M3704.30,1298.50 L3704.30,1308.50 L3684.30,1312.50 L3704.30,1316.50 L3704.30,1326.50 A0,0 0 0 0 3704.30,1326.50 L3764.30,1326.50 A0,0 0 0 0 3764.30,1326.50 L3764.30,1308.50 L3754.30,1298.50 L3704.30,1298.50 A0,0 0 0 0 3704.30,1298.50" fill="#FEFFDD" stroke="#181818" stroke-width="0.50"/><path d="M3754.30,1298.50 L3754.30,1308.50 L3764.30,1308.50 L3754.30,1298.50" fill="#FEFFDD" stroke="#181818" stroke-width="0.50"/><text x="3710.30" y="1318.50" font-size="13" fill="#000000" xml:space="preserve" style="white-space: pre" font-family="'PingFang SC, Microsoft YaHei, sans-serif'">未开始</text><rect x="3489.64" y="1285.50" width="194.67" height="54" rx="12.50" ry="12.50" fill="#FFFFFF" stroke="#999999" stroke-width="0.50"/><text x="3499.64" y="1309.50" font-size="12" fill="#000000" xml:space="preserve" style="white-space: pre" font-family="'PingFang SC, Microsoft YaHei, sans-serif'">上线发布</text><text x="3499.64" y="1326.50" font-size="12" fill="#000000" xml:space="preserve" style="white-space: pre" font-family="'PingFang SC, Microsoft YaHei, sans-serif'">产出：灰度 / 发布记录 / 回滚预案</text><line x1="3483.64" y1="69.50" x2="3483.64" y2="1455.50" stroke="#000000" stroke-width="1.50"/><rect x="3775.30" y="1359.50" width="204.00" height="54" rx="12.50" ry="12.50" fill="#FFFFFF" stroke="#999999" stroke-width="0.50"/><text x="3785.30" y="1383.50" font-size="12" fill="#000000" xml:space="preserve" style="white-space: pre" font-family="'PingFang SC, Microsoft YaHei, sans-serif'">生产运维</text><text x="3785.30" y="1400.50" font-size="12" fill="#000000" xml:space="preserve" style="white-space: pre" font-family="'PingFang SC, Microsoft YaHei, sans-serif'">产出：监控 / 告警 / 值班 / 容量复盘</text><circle cx="3877.30" cy="1444.50" r="11" fill="#00000000" stroke="#222222" stroke-width="1"/><circle cx="3877.30" cy="1444.50" r="6" fill="#222222" stroke="#222222" stroke-width="1"/><line x1="3769.30" y1="69.50" x2="3769.30" y2="1455.50" stroke="#000000" stroke-width="1.50"/><line x1="3983.31" y1="69.50" x2="3983.31" y2="1455.50" stroke="#000000" stroke-width="1.50"/><line x1="89.01" y1="119.50" x2="89.01" y2="139.50" stroke="#181818" stroke-width="1"/><polygon points="85.01,129.50 89.01,139.50 93.01,129.50 89.01,133.50" fill="#181818" stroke="#181818" stroke-width="1"/><line x1="3877.30" y1="1413.50" x2="3877.30" y2="1433.50" stroke="#181818" stroke-width="1"/><polygon points="3873.30,1423.50 3877.30,1433.50 3881.30,1423.50 3877.30,1427.50" fill="#181818" stroke="#181818" stroke-width="1"/><line x1="89.01" y1="193.50" x2="89.01" y2="287.50" stroke="#181818" stroke-width="1"/><line x1="89.01" y1="287.50" x2="413.53" y2="287.50" stroke="#181818" stroke-width="1"/><line x1="413.53" y1="287.50" x2="413.53" y2="406.50" stroke="#181818" stroke-width="1"/><polygon points="409.53,396.50 413.53,406.50 417.53,396.50 413.53,400.50" fill="#181818" stroke="#181818" stroke-width="1"/><line x1="413.53" y1="460.50" x2="413.53" y2="636" stroke="#181818" stroke-width="1"/><line x1="413.53" y1="636" x2="1363.54" y2="636" stroke="#181818" stroke-width="1"/><line x1="1363.54" y1="636" x2="1363.54" y2="786.50" stroke="#181818" stroke-width="1"/><polygon points="1359.54,776.50 1363.54,786.50 1367.54,776.50 1363.54,780.50" fill="#181818" stroke="#181818" stroke-width="1"/><line x1="1363.54" y1="840.50" x2="1363.54" y2="939.50" stroke="#181818" stroke-width="1"/><line x1="1363.54" y1="939.50" x2="2069.90" y2="939.50" stroke="#181818" stroke-width="1"/><line x1="2069.90" y1="939.50" x2="2069.90" y2="1013.50" stroke="#181818" stroke-width="1"/><polygon points="2065.90,1003.50 2069.90,1013.50 2073.90,1003.50 2069.90,1007.50" fill="#181818" stroke="#181818" stroke-width="1"/><line x1="2069.90" y1="1067.50" x2="2069.90" y2="1110" stroke="#181818" stroke-width="1"/><line x1="2069.90" y1="1110" x2="2601.19" y2="1110" stroke="#181818" stroke-width="1"/><line x1="2601.19" y1="1110" x2="2601.19" y2="1137.50" stroke="#181818" stroke-width="1"/><polygon points="2597.19,1127.50 2601.19,1137.50 2605.19,1127.50 2601.19,1131.50" fill="#181818" stroke="#181818" stroke-width="1"/><line x1="2601.19" y1="1191.50" x2="2601.19" y2="1196.50" stroke="#181818" stroke-width="1"/><line x1="2601.19" y1="1196.50" x2="3210.30" y2="1196.50" stroke="#181818" stroke-width="1"/><line x1="3210.30" y1="1196.50" x2="3210.30" y2="1211.50" stroke="#181818" stroke-width="1"/><polygon points="3206.30,1201.50 3210.30,1211.50 3214.30,1201.50 3210.30,1205.50" fill="#181818" stroke="#181818" stroke-width="1"/><line x1="3210.30" y1="1265.50" x2="3210.30" y2="1270.50" stroke="#181818" stroke-width="1"/><line x1="3210.30" y1="1270.50" x2="3586.97" y2="1270.50" stroke="#181818" stroke-width="1"/><line x1="3586.97" y1="1270.50" x2="3586.97" y2="1285.50" stroke="#181818" stroke-width="1"/><polygon points="3582.97,1275.50 3586.97,1285.50 3590.97,1275.50 3586.97,1279.50" fill="#181818" stroke="#181818" stroke-width="1"/><line x1="3586.97" y1="1339.50" x2="3586.97" y2="1344.50" stroke="#181818" stroke-width="1"/><line x1="3586.97" y1="1344.50" x2="3877.30" y2="1344.50" stroke="#181818" stroke-width="1"/><line x1="3877.30" y1="1344.50" x2="3877.30" y2="1359.50" stroke="#181818" stroke-width="1"/><polygon points="3873.30,1349.50 3877.30,1359.50 3881.30,1349.50 3877.30,1353.50" fill="#181818" stroke="#181818" stroke-width="1"/><text x="125.01" y="89.50" font-size="18" fill="#000000" xml:space="preserve" style="white-space: pre" font-family="'PingFang SC, Microsoft YaHei, sans-serif'">需求分析</text><text x="726.78" y="89.50" font-size="18" fill="#000000" xml:space="preserve" style="white-space: pre" font-family="'PingFang SC, Microsoft YaHei, sans-serif'">架构设计</text><text x="1564.38" y="89.50" font-size="18" fill="#000000" xml:space="preserve" style="white-space: pre" font-family="'PingFang SC, Microsoft YaHei, sans-serif'">实现设计</text><text x="2218.54" y="89.50" font-size="18" fill="#000000" xml:space="preserve" style="white-space: pre" font-family="'PingFang SC, Microsoft YaHei, sans-serif'">代码开发</text><text x="2778.41" y="89.50" font-size="18" fill="#000000" xml:space="preserve" style="white-space: pre" font-family="'PingFang SC, Microsoft YaHei, sans-serif'">单元测试</text><text x="3259.30" y="89.50" font-size="18" fill="#000000" xml:space="preserve" style="white-space: pre" font-family="'PingFang SC, Microsoft YaHei, sans-serif'">系统测试</text><text x="3590.47" y="89.50" font-size="18" fill="#000000" xml:space="preserve" style="white-space: pre" font-family="'PingFang SC, Microsoft YaHei, sans-serif'">上线发布</text><text x="3840.30" y="89.50" font-size="18" fill="#000000" xml:space="preserve" style="white-space: pre" font-family="'PingFang SC, Microsoft YaHei, sans-serif'">生产运维</text><g class="legend" data-source-line="106"><rect x="3673.06" y="1477.50" width="314.50" height="70" rx="7.50" ry="7.50" fill="#00000000" stroke="#000000" stroke-width="1"/><text x="3678.06" y="1498.50" font-size="14" fill="#000000" xml:space="preserve" style="white-space: pre" font-family="'PingFang SC, Microsoft YaHei, sans-serif'">大厂瀑布 </text><text x="3737.56" y="1498.50" font-size="14" fill="#000000" xml:space="preserve" style="white-space: pre" font-weight="bold" font-family="'PingFang SC, Microsoft YaHei, sans-serif'">标准八关</text><text x="3793.56" y="1498.50" font-size="14" fill="#000000" xml:space="preserve" style="white-space: pre" font-family="'PingFang SC, Microsoft YaHei, sans-serif'">（你问的流程 = 是）</text><text x="3678.06" y="1518.50" font-size="14" fill="#000000" xml:space="preserve" style="white-space: pre" font-family="'PingFang SC, Microsoft YaHei, sans-serif'">需求分析 → 架构设计 → 实现设计 → 代码开发</text><text x="3678.06" y="1538.50" font-size="14" fill="#000000" xml:space="preserve" style="white-space: pre" font-family="'PingFang SC, Microsoft YaHei, sans-serif'">→ 单元测试 → 系统测试 → 上线发布 → 生产运维</text></g></g></svg>
